<svg width="18" height="18" viewBox="0 0 18 18" fill="none" xmlns="http://www.w3.org/2000/svg">
<g clip-path="url(#clip0_9_650)">
<path d="M18 10.6202C18 12.6602 17.4 14.4802 16.2 16.0802C16.08 16.2402 15.92 16.3302 15.72 16.3502C15.52 16.3702 15.34 16.3202 15.18 16.2002C15.02 16.0802 14.93 15.9302 14.91 15.7502C14.89 15.5702 14.94 15.4002 15.06 15.2402C16.1 13.8802 16.62 12.3402 16.62 10.6202C16.62 9.26021 16.28 8.00021 15.6 6.84021C14.92 5.68021 13.99 4.76021 12.81 4.08021C11.63 3.40021 10.36 3.06021 9 3.06021C7.64 3.06021 6.37 3.40021 5.19 4.08021C4.01 4.76021 3.08 5.68021 2.4 6.84021C1.72 8.00021 1.38 9.26021 1.38 10.6202C1.38 12.3402 1.9 13.8802 2.94 15.2402C3.06 15.4002 3.11 15.5702 3.09 15.7502C3.07 15.9302 2.98 16.0802 2.82 16.2002C2.66 16.3202 2.48 16.3702 2.28 16.3502C2.08 16.3302 1.92 16.2402 1.8 16.0802C0.6 14.4802 0 12.6602 0 10.6202C0 9.02021 0.4 7.53021 1.2 6.15021C2 4.77021 3.09 3.68021 4.47 2.88021C5.85 2.08021 7.36 1.68021 9 1.68021C10.64 1.68021 12.15 2.08021 13.53 2.88021C14.91 3.68021 16 4.77021 16.8 6.15021C17.6 7.53021 18 9.02021 18 10.6202ZM13.44 6.42021C13.6 6.54021 13.68 6.70021 13.68 6.90021C13.68 7.10021 13.6 7.26021 13.44 7.38021L11.16 9.72021C11.36 10.0802 11.46 10.4602 11.46 10.8602C11.46 11.5402 11.22 12.1202 10.74 12.6002C10.26 13.0802 9.68 13.3202 9 13.3202C8.32 13.3202 7.74 13.0802 7.26 12.6002C6.78 12.1202 6.54 11.5402 6.54 10.8602C6.54 10.1802 6.78 9.60021 7.26 9.12021C7.74 8.64021 8.32 8.40021 9 8.40021C9.4 8.40021 9.78 8.50021 10.14 8.70021L12.48 6.42021C12.6 6.26021 12.76 6.18021 12.96 6.18021C13.16 6.18021 13.32 6.26021 13.44 6.42021ZM10.08 10.8602C10.08 10.5802 9.97 10.3402 9.75 10.1402C9.53 9.94021 9.28 9.84021 9 9.84021C8.72 9.84021 8.47 9.94021 8.25 10.1402C8.03 10.3402 7.92 10.5802 7.92 10.8602C7.92 11.1402 8.03 11.3902 8.25 11.6102C8.47 11.8302 8.72 11.9402 9 11.9402C9.28 11.9402 9.53 11.8302 9.75 11.6102C9.97 11.3902 10.08 11.1402 10.08 10.8602Z" fill="#405FF2"/>
</g>
<defs>
<clipPath id="clip0_9_650">
<rect width="18" height="18" fill="white" transform="matrix(1 0 0 -1 0 18)"/>
</clipPath>
</defs>
</svg>
