<svg width="35" height="34" viewBox="0 0 35 34" fill="none" xmlns="http://www.w3.org/2000/svg">
<mask id="mask0_5_830" style="mask-type:luminance" maskUnits="userSpaceOnUse" x="0" y="0" width="35" height="34">
<path d="M34.5 0H0.5V34H34.5V0Z" fill="white"/>
</mask>
<g mask="url(#mask0_5_830)">
<path d="M29.6539 12.9591H26.9432C26.0374 11.6291 24.8322 10.5173 23.4281 9.72437C21.8558 8.83644 20.0704 8.36719 18.265 8.36719H17.5C16.9451 8.36719 16.4953 8.81699 16.4953 9.37184V12.9591H5.3461C2.89815 12.9591 0.869644 14.784 0.546173 17.1445C0.542542 17.1673 0.539429 17.1901 0.537354 17.2135C0.513748 17.4078 0.5 17.6049 0.5 17.8054V21.6469C0.5 22.2017 0.949799 22.6515 1.50465 22.6515H5.01978C5.46672 24.3781 7.0379 25.6567 8.90221 25.6567C10.7665 25.6567 12.3377 24.3781 12.7846 22.6515H22.2154C22.6626 24.3781 24.2335 25.6567 26.0978 25.6567C27.9621 25.6567 29.533 24.3781 29.9802 22.6515H33.4953C34.0502 22.6515 34.5 22.2017 34.5 21.6469V17.8054C34.5 15.1331 32.326 12.9591 29.6539 12.9591ZM18.5047 10.3801C20.7251 10.4437 22.8312 11.3907 24.3588 12.9591H18.5047V10.3801ZM2.50931 18.304H4.06104C4.61589 18.304 5.06569 17.8542 5.06569 17.2993C5.06569 16.7445 4.61589 16.2947 4.06104 16.2947H2.94691C3.44989 15.4986 4.33704 14.9686 5.3461 14.9686H16.4953V20.6422H12.7846C12.3374 18.9157 10.7665 17.6368 8.90221 17.6368C7.0379 17.6368 5.46698 18.9157 5.01978 20.6422H2.50931V18.304ZM10.9027 21.6469C10.9027 22.7501 10.0054 23.6474 8.90221 23.6474C7.79898 23.6474 6.90172 22.7501 6.90172 21.6469C6.90172 20.5437 7.79898 19.6464 8.90221 19.6464C10.0054 19.6464 10.9027 20.5437 10.9027 21.6469ZM28.0983 21.6469C28.0983 22.7501 27.201 23.6474 26.0978 23.6474C24.9946 23.6474 24.0973 22.7501 24.0973 21.6469C24.0973 20.5437 24.9946 19.6464 26.0978 19.6464C27.201 19.6464 28.0983 20.5437 28.0983 21.6469ZM29.9802 20.6422C29.5333 18.9157 27.9621 17.6368 26.0978 17.6368C24.2335 17.6368 22.6623 18.9157 22.2154 20.6422H18.5047V14.9686H29.6539C30.6451 14.9686 31.519 15.4802 32.0264 16.2527H30.4715C29.9167 16.2527 29.4669 16.7025 29.4669 17.2573C29.4669 17.8122 29.9167 18.2622 30.4715 18.2622H32.4907V20.6422H29.9802Z" fill="#050B20"/>
</g>
</svg>
