<svg width="17" height="17" viewBox="0 0 17 17" fill="none" xmlns="http://www.w3.org/2000/svg">
<path d="M11.2767 8.16L7.76333 5.61C7.61222 5.49667 7.46111 5.47778 7.31 5.55333C7.15889 5.62889 7.08333 5.76111 7.08333 5.95V11.05C7.08333 11.2389 7.15889 11.3711 7.31 11.4467C7.38556 11.4844 7.46111 11.5033 7.53667 11.5033C7.61222 11.5033 7.68778 11.4656 7.76333 11.39L11.2767 8.84C11.4278 8.76444 11.5033 8.65111 11.5033 8.5C11.5033 8.34889 11.4278 8.23556 11.2767 8.16ZM8.5 0C6.95111 0 5.525 0.377777 4.22167 1.13333C2.91833 1.88889 1.88889 2.91833 1.13333 4.22167C0.377778 5.525 0 6.95111 0 8.5C0 10.0489 0.377778 11.475 1.13333 12.7783C1.88889 14.0817 2.91833 15.1111 4.22167 15.8667C5.525 16.6222 6.95111 17 8.5 17C10.0489 17 11.475 16.6222 12.7783 15.8667C14.0817 15.1111 15.1111 14.0817 15.8667 12.7783C16.6222 11.475 17 10.0489 17 8.5C17 6.95111 16.6222 5.525 15.8667 4.22167C15.1111 2.91833 14.0817 1.88889 12.7783 1.13333C11.475 0.377777 10.0489 0 8.5 0ZM8.5 15.5833C7.21556 15.5833 6.035 15.2622 4.95833 14.62C3.88167 13.9778 3.02222 13.1183 2.38 12.0417C1.73778 10.965 1.41667 9.78444 1.41667 8.5C1.41667 7.21556 1.73778 6.035 2.38 4.95833C3.02222 3.88167 3.88167 3.02222 4.95833 2.38C6.035 1.73778 7.21556 1.41667 8.5 1.41667C9.78444 1.41667 10.965 1.73778 12.0417 2.38C13.1183 3.02222 13.9778 3.88167 14.62 4.95833C15.2622 6.035 15.5833 7.21556 15.5833 8.5C15.5833 9.78444 15.2622 10.965 14.62 12.0417C13.9778 13.1183 13.1183 13.9778 12.0417 14.62C10.965 15.2622 9.78444 15.5833 8.5 15.5833Z" fill="#050B20"/>
</svg>
