<svg width="18" height="18" viewBox="0 0 18 18" fill="none" xmlns="http://www.w3.org/2000/svg">
<path d="M17.16 8.4L11.46 2.7L12.96 1.2C13.08 1.08 13.14 0.92 13.14 0.720001C13.14 0.52 13.07 0.35 12.93 0.210001C12.79 0.0699997 12.63 0 12.45 0C12.27 0 12.1 0.0599995 11.94 0.18L3.48 8.7C2.88 8.86 2.38 9.19 1.98 9.69C1.58 10.19 1.38 10.76 1.38 11.4C1.38 11.6 1.45 11.77 1.59 11.91C1.73 12.05 1.9 12.12 2.1 12.12C2.3 12.12 2.47 12.05 2.61 11.91C2.75 11.77 2.82 11.58 2.82 11.34C2.82 11.1 2.89 10.87 3.03 10.65C3.17 10.43 3.36 10.26 3.6 10.14L9.54 16.08C10.06 16.6 10.71 16.86 11.49 16.86C12.27 16.86 12.94 16.6 13.5 16.08L17.16 12.42C17.72 11.86 18 11.19 18 10.41C18 9.63 17.72 8.96 17.16 8.4ZM16.2 11.4L12.48 15.06C12.24 15.34 11.92 15.48 11.52 15.48C11.12 15.48 10.78 15.34 10.5 15.06L5.4 9.96H13.2C13.4 9.96 13.57 9.9 13.71 9.78C13.85 9.66 13.92 9.5 13.92 9.3C13.92 9.1 13.85 8.93 13.71 8.79C13.57 8.65 13.4 8.58 13.2 8.58H5.58L10.44 3.72L16.2 9.42C16.48 9.7 16.62 10.03 16.62 10.41C16.62 10.79 16.48 11.12 16.2 11.4ZM3.36 14.04C3.12 13.68 2.88 13.36 2.64 13.08C2.48 12.88 2.29 12.78 2.07 12.78C1.85 12.78 1.68 12.88 1.56 13.08C1.28 13.36 1.02 13.68 0.78 14.04C0.26 14.84 0 15.46 0 15.9C0 16.5 0.2 17 0.6 17.4C1 17.8 1.49 18 2.07 18C2.65 18 3.14 17.8 3.54 17.4C3.94 17 4.14 16.5 4.14 15.9C4.14 15.46 3.88 14.84 3.36 14.04ZM2.1 16.62C1.9 16.62 1.73 16.55 1.59 16.41C1.45 16.27 1.39 16.11 1.41 15.93C1.43 15.75 1.62 15.38 1.98 14.82L2.1 14.7L2.16 14.82C2.52 15.38 2.71 15.75 2.73 15.93C2.75 16.11 2.69 16.27 2.55 16.41C2.41 16.55 2.26 16.62 2.1 16.62Z" fill="#050B20"/>
</svg>
