<svg width="18" height="18" viewBox="0 0 18 18" fill="none" xmlns="http://www.w3.org/2000/svg">
<g clip-path="url(#clip0_9_776)">
<path d="M6.5998 8.4C6.4398 8.4 6.2998 8.34 6.1798 8.22C6.0598 8.1 5.9998 7.96 5.9998 7.8V6C5.9598 5.76 6.0498 5.57 6.2698 5.43C6.4898 5.29 6.7098 5.29 6.9298 5.43C7.1498 5.57 7.2398 5.76 7.1998 6V7.8C7.1998 7.96 7.1398 8.1 7.0198 8.22C6.8998 8.34 6.7598 8.4 6.5998 8.4ZM8.9998 8.4C8.8398 8.4 8.6998 8.34 8.5798 8.22C8.4598 8.1 8.3998 7.96 8.3998 7.8V5.4C8.3998 5.24 8.4598 5.11 8.5798 5.01C8.6998 4.91 8.8398 4.86 8.9998 4.86C9.1598 4.86 9.2998 4.91 9.4198 5.01C9.5398 5.11 9.5998 5.24 9.5998 5.4V7.8C9.5998 7.96 9.5398 8.1 9.4198 8.22C9.2998 8.34 9.1598 8.4 8.9998 8.4ZM11.3998 8.4C11.2398 8.4 11.0998 8.34 10.9798 8.22C10.8598 8.1 10.7998 7.96 10.7998 7.8V4.2C10.7598 3.96 10.8498 3.77 11.0698 3.63C11.2898 3.49 11.5098 3.49 11.7298 3.63C11.9498 3.77 12.0398 3.96 11.9998 4.2V7.8C11.9998 7.96 11.9398 8.1 11.8198 8.22C11.6998 8.34 11.5598 8.4 11.3998 8.4ZM13.7998 18H4.1998C3.5198 18 2.9498 17.77 2.4898 17.31C2.0298 16.85 1.7998 16.28 1.7998 15.6V4.74C1.7998 4.3 1.8898 3.87 2.0698 3.45C2.2498 3.03 2.5198 2.68 2.8798 2.4L4.9798 0.720001C5.4998 0.24 6.1198 0 6.8398 0H13.7998C14.4798 0 15.0498 0.23 15.5098 0.690001C15.9698 1.15 16.1998 1.72 16.1998 2.4V15.6C16.1998 16.28 15.9698 16.85 15.5098 17.31C15.0498 17.77 14.4798 18 13.7998 18ZM6.8398 1.2C6.4398 1.2 6.0798 1.34 5.7598 1.62L3.6598 3.36C3.2198 3.72 2.9998 4.18 2.9998 4.74V15.6C2.9998 15.92 3.1198 16.2 3.3598 16.44C3.5998 16.68 3.8798 16.8 4.1998 16.8H13.7998C14.1198 16.8 14.3998 16.68 14.6398 16.44C14.8798 16.2 14.9998 15.92 14.9998 15.6V2.4C14.9998 2.08 14.8798 1.8 14.6398 1.56C14.3998 1.32 14.1198 1.2 13.7998 1.2H6.8398ZM12.5998 14.4H5.3998C5.1598 14.44 4.9698 14.35 4.8298 14.13C4.6898 13.91 4.6898 13.69 4.8298 13.47C4.9698 13.25 5.1598 13.16 5.3998 13.2H12.5998C12.8398 13.16 13.0298 13.25 13.1698 13.47C13.3098 13.69 13.3098 13.91 13.1698 14.13C13.0298 14.35 12.8398 14.44 12.5998 14.4ZM12.5998 11.4H5.3998C5.2398 11.4 5.1098 11.34 5.0098 11.22C4.9098 11.1 4.8598 10.96 4.8598 10.8C4.8598 10.64 4.9098 10.5 5.0098 10.38C5.1098 10.26 5.2398 10.2 5.3998 10.2H12.5998C12.8398 10.16 13.0298 10.25 13.1698 10.47C13.3098 10.69 13.3098 10.91 13.1698 11.13C13.0298 11.35 12.8398 11.44 12.5998 11.4Z" fill="#050B20"/>
</g>
<defs>
<clipPath id="clip0_9_776">
<rect width="18" height="18" fill="white" transform="matrix(1 0 0 -1 0 18)"/>
</clipPath>
</defs>
</svg>
