<svg width="26" height="26" viewBox="0 0 26 26" fill="none" xmlns="http://www.w3.org/2000/svg">
<path d="M23.5131 10.9886C23.1047 10.9886 22.7537 10.682 22.7071 10.2671C22.2954 6.60981 19.4538 3.77147 15.7965 3.36522C15.3512 3.31539 15.0295 2.91456 15.0793 2.46822C15.1281 2.02297 15.5278 1.69039 15.9763 1.75105C20.3931 2.24072 23.8251 5.66839 24.3212 10.0851C24.3722 10.5315 24.0504 10.9333 23.6052 10.9832C23.5748 10.9864 23.5434 10.9886 23.5131 10.9886Z" fill="#E1E1E1"/>
<path d="M19.6753 11.0004C19.294 11.0004 18.9549 10.7317 18.8791 10.3439C18.5671 8.7405 17.331 7.50442 15.7298 7.1935C15.2889 7.10792 15.0018 6.68217 15.0874 6.24125C15.173 5.80033 15.6096 5.51325 16.0396 5.59883C18.2941 6.0365 20.035 7.77634 20.4737 10.0319C20.5593 10.4739 20.2722 10.8996 19.8324 10.9852C19.7793 10.995 19.7273 11.0004 19.6753 11.0004Z" fill="#E1E1E1"/>
<path fill-rule="evenodd" clip-rule="evenodd" d="M8.1053 17.8102C13.2111 22.9171 16.6106 24.2561 18.7578 24.2561C19.8173 24.2561 20.5735 23.93 21.0772 23.5681C21.1 23.5551 23.4313 22.1295 23.8397 19.9715C24.0326 18.9586 23.7509 17.9565 23.0272 17.0725C20.0459 13.4531 18.5271 13.7911 16.8501 14.6068C15.8198 15.1116 15.0062 15.5038 12.7085 13.2082C10.412 10.9108 10.8082 10.0971 11.3097 9.067C12.1265 7.39 12.4626 5.8708 8.84197 2.8873C7.96014 2.16689 6.96455 1.88522 5.95272 2.0748C3.82614 2.47239 2.39397 4.7658 2.39397 4.7658C1.2543 6.36589 0.480804 10.1868 8.1053 17.8102ZM6.28422 3.66514C6.37955 3.64997 6.4738 3.6413 6.56697 3.6413C6.99164 3.6413 7.40114 3.80705 7.80955 4.14289C10.7292 6.54786 10.3598 7.30621 9.8484 8.35595C9.08031 9.93436 8.67839 11.4749 11.5591 14.3576C14.4429 17.2404 15.9845 16.8385 17.5607 16.0682L17.5633 16.0669C18.6118 15.5573 19.3698 15.1889 21.7716 18.1049C22.1822 18.6054 22.3393 19.1059 22.2505 19.6335C22.0457 20.8468 20.6352 21.9334 20.2084 22.1977C18.6798 23.2876 14.9997 22.4068 9.25364 16.6619C3.5098 10.917 2.62797 7.23689 3.7568 5.6498C3.98214 5.28255 5.07305 3.86989 6.28422 3.66514Z" fill="#050B20"/>
</svg>
