<svg width="13" height="13" viewBox="0 0 13 13" fill="none" xmlns="http://www.w3.org/2000/svg">
<path d="M10.66 4.16H8.36333C8.21889 4.16 8.10333 4.21056 8.01667 4.31167C7.93 4.41278 7.88667 4.52833 7.88667 4.65833C7.88667 4.78833 7.93 4.89667 8.01667 4.98333C8.10333 5.07 8.21889 5.11333 8.36333 5.11333H10.66C10.8044 5.11333 10.92 5.15667 11.0067 5.24333C11.0933 5.33 11.1367 5.44556 11.1367 5.59V11.6133C11.1367 11.7289 11.0933 11.8372 11.0067 11.9383C10.92 12.0394 10.8044 12.09 10.66 12.09H1.38667C1.24222 12.09 1.12667 12.0394 1.04 11.9383C0.953333 11.8372 0.91 11.7289 0.91 11.6133V5.59C0.91 5.44556 0.953333 5.33 1.04 5.24333C1.12667 5.15667 1.24222 5.11333 1.38667 5.11333H3.68333C3.82778 5.11333 3.94333 5.07 4.03 4.98333C4.11667 4.89667 4.16 4.78833 4.16 4.65833C4.16 4.52833 4.11667 4.41278 4.03 4.31167C3.94333 4.21056 3.82778 4.16 3.68333 4.16H1.38667C1.01111 4.16 0.686111 4.29722 0.411667 4.57167C0.137222 4.84611 0 5.18556 0 5.59V11.6133C0 11.9889 0.137222 12.3139 0.411667 12.5883C0.686111 12.8628 1.01111 13 1.38667 13H10.66C11.0356 13 11.3606 12.8628 11.635 12.5883C11.9094 12.3139 12.0467 11.9889 12.0467 11.6133V5.59C12.0467 5.18556 11.9094 4.84611 11.635 4.57167C11.3606 4.29722 11.0356 4.16 10.66 4.16ZM8.66667 2.47L6.37 0.13C6.25444 0.0433331 6.13889 0 6.02333 0C5.90778 0 5.79222 0.0433331 5.67667 0.13L3.38 2.47C3.29333 2.55667 3.25 2.665 3.25 2.795C3.25 2.925 3.29333 3.03333 3.38 3.12C3.46667 3.20667 3.575 3.25 3.705 3.25C3.835 3.25 3.94333 3.20667 4.03 3.12L5.54667 1.60333V9.27333C5.54667 9.41778 5.59722 9.53333 5.69833 9.62C5.79944 9.70667 5.90778 9.75 6.02333 9.75C6.13889 9.75 6.24722 9.70667 6.34833 9.62C6.44944 9.53333 6.5 9.41778 6.5 9.27333V1.60333L8.01667 3.12C8.10333 3.20667 8.21167 3.25 8.34167 3.25C8.47167 3.25 8.58 3.19944 8.66667 3.09833C8.75333 2.99722 8.79667 2.88889 8.79667 2.77333C8.79667 2.65778 8.75333 2.55667 8.66667 2.47Z" fill="#050B20"/>
</svg>
