<svg width="40" height="40" viewBox="0 0 40 40" fill="none" xmlns="http://www.w3.org/2000/svg">
<rect width="40" height="40" rx="20" fill="#405FF2" fill-opacity="0.1"/>
<path d="M27.2778 18.6074C26.9951 18.6074 26.7521 18.3952 26.7198 18.108C26.4348 15.576 24.4676 13.611 21.9356 13.3297C21.6273 13.2952 21.4046 13.0177 21.4391 12.7087C21.4728 12.4005 21.7496 12.1702 22.0601 12.2122C25.1178 12.5512 27.4938 14.9242 27.8373 17.982C27.8726 18.291 27.6498 18.5692 27.3416 18.6037C27.3206 18.6059 27.2988 18.6074 27.2778 18.6074Z" fill="#405FF2"/>
<path d="M24.6222 18.6157C24.3582 18.6157 24.1235 18.4297 24.071 18.1612C23.855 17.0512 22.9992 16.1954 21.8907 15.9802C21.5855 15.9209 21.3867 15.6262 21.446 15.3209C21.5052 15.0157 21.8075 14.8169 22.1052 14.8762C23.666 15.1792 24.8712 16.3837 25.175 17.9452C25.2342 18.2512 25.0355 18.5459 24.731 18.6052C24.6942 18.6119 24.6582 18.6157 24.6222 18.6157Z" fill="#405FF2"/>
<path fill-rule="evenodd" clip-rule="evenodd" d="M16.6117 23.3302C20.1465 26.8657 22.5 27.7927 23.9865 27.7927C24.72 27.7927 25.2435 27.567 25.5923 27.3165C25.608 27.3075 27.222 26.3205 27.5048 24.8265C27.6383 24.1252 27.4433 23.4315 26.9423 22.8195C24.8783 20.3137 23.8268 20.5477 22.6658 21.1125C21.9525 21.462 21.3893 21.7335 19.7985 20.1442C18.2087 18.5537 18.4829 17.9904 18.8301 17.2773C19.3956 16.1163 19.6283 15.0645 17.1217 12.999C16.5112 12.5003 15.822 12.3053 15.1215 12.4365C13.6492 12.7118 12.6577 14.2995 12.6577 14.2995C11.8687 15.4073 11.3332 18.0525 16.6117 23.3302ZM15.351 13.5375C15.417 13.527 15.4822 13.521 15.5467 13.521C15.8407 13.521 16.1242 13.6358 16.407 13.8683C18.4282 15.5333 18.1725 16.0583 17.8185 16.785C17.2867 17.8778 17.0085 18.9442 19.0028 20.94C20.9993 22.9357 22.0665 22.6575 23.1578 22.1242L23.1596 22.1233C23.8854 21.7705 24.4102 21.5155 26.073 23.5342C26.3573 23.8807 26.466 24.2272 26.4045 24.5925C26.2628 25.4325 25.2863 26.1847 24.9908 26.3677C23.9325 27.1222 21.3848 26.5125 17.4067 22.5352C13.4302 18.558 12.8197 16.0103 13.6012 14.9115C13.7572 14.6573 14.5125 13.6793 15.351 13.5375Z" fill="#405FF2"/>
</svg>
