<svg width="24" height="22" viewBox="0 0 24 22" fill="none" xmlns="http://www.w3.org/2000/svg">
<g clip-path="url(#clip0_10_2091)">
<path fill-rule="evenodd" clip-rule="evenodd" d="M11.7584 12.5869C11.0336 12.5869 10.3111 12.3474 9.70654 11.8686L4.84779 7.95128C4.49787 7.66962 4.44371 7.1572 4.72429 6.80837C5.00704 6.46062 5.51837 6.40537 5.86721 6.68595L10.7216 10.5989C11.3316 11.0821 12.1906 11.0821 12.8049 10.5946L17.6106 6.68812C17.9594 6.4032 18.4707 6.45737 18.7546 6.8062C19.0373 7.15395 18.9842 7.66528 18.6365 7.94912L13.8221 11.8621C13.2133 12.3453 12.4853 12.5869 11.7584 12.5869Z" fill="#E1E1E1"/>
<path fill-rule="evenodd" clip-rule="evenodd" d="M17.0479 19.6668C17.05 19.6646 17.0587 19.6668 17.0652 19.6668C18.3013 19.6668 19.3976 19.2248 20.2383 18.3852C21.2144 17.4134 21.7506 16.017 21.7506 14.4538V7.01341C21.7506 3.98766 19.7725 1.79174 17.0479 1.79174H6.41173C3.68715 1.79174 1.70898 3.98766 1.70898 7.01341V14.4538C1.70898 16.017 2.24631 17.4134 3.22131 18.3852C4.06198 19.2248 5.1594 19.6668 6.3944 19.6668H17.0479ZM6.39115 21.2918C4.71956 21.2918 3.22673 20.6851 2.07407 19.5368C0.790317 18.2563 0.0839844 16.4514 0.0839844 14.4538V7.01341C0.0839844 3.11016 2.80423 0.166748 6.41173 0.166748H17.0479C20.6554 0.166748 23.3756 3.11016 23.3756 7.01341V14.4538C23.3756 16.4514 22.6693 18.2563 21.3855 19.5368C20.234 20.684 18.74 21.2918 17.0652 21.2918H6.39115Z" fill="#050B20"/>
</g>
<defs>
<clipPath id="clip0_10_2091">
<rect width="24" height="22" fill="white"/>
</clipPath>
</defs>
</svg>
