<svg width="18" height="18" viewBox="0 0 18 18" fill="none" xmlns="http://www.w3.org/2000/svg">
<path d="M2.58 13.2C2.26 13.52 2.1 13.89 2.1 14.31C2.1 14.73 2.26 15.1 2.58 15.42C2.9 15.74 3.27 15.9 3.69 15.9C4.11 15.9 4.48 15.74 4.8 15.42C5.12 15.1 5.28 14.73 5.28 14.31C5.28 13.89 5.12 13.52 4.8 13.2C4.48 12.88 4.11 12.72 3.69 12.72C3.27 12.72 2.9 12.88 2.58 13.2ZM4.08 14.7C3.96 14.78 3.83 14.82 3.69 14.82C3.55 14.82 3.43 14.77 3.33 14.67C3.23 14.57 3.18 14.45 3.18 14.31C3.18 14.17 3.23 14.05 3.33 13.95C3.43 13.85 3.55 13.8 3.69 13.8C3.83 13.8 3.95 13.85 4.05 13.95C4.15 14.05 4.2 14.17 4.2 14.31C4.2 14.45 4.16 14.58 4.08 14.7ZM17.52 4.74L13.26 0.48C12.94 0.16 12.56 0 12.12 0C11.68 0 11.3 0.16 10.98 0.48L6.48 4.92L7.14 5.64C8.02 5.6 8.84 5.78 9.6 6.18L4.92 10.86C4.28 10.62 3.61 10.57 2.91 10.71C2.21 10.85 1.61 11.17 1.11 11.67C0.61 12.17 0.28 12.73 0.12 13.35C-0.04 13.97 -0.04 14.6 0.12 15.24C0.28 15.88 0.6 16.44 1.08 16.92C1.44 17.28 1.84 17.55 2.28 17.73C2.72 17.91 3.19 18 3.69 18C4.19 18 4.66 17.91 5.1 17.73C5.54 17.55 5.94 17.28 6.3 16.92C6.82 16.4 7.15 15.79 7.29 15.09C7.43 14.39 7.38 13.72 7.14 13.08L11.82 8.4C12.22 9.16 12.4 9.98 12.36 10.86L13.08 11.52L17.52 7.02C17.84 6.74 18 6.37 18 5.91C18 5.45 17.84 5.06 17.52 4.74ZM5.58 16.2C5.06 16.68 4.43 16.92 3.69 16.92C2.95 16.92 2.33 16.67 1.83 16.17C1.33 15.67 1.08 15.05 1.08 14.31C1.08 13.57 1.33 12.95 1.83 12.45C2.33 11.95 2.95 11.7 3.69 11.7C4.43 11.7 5.05 11.95 5.55 12.45C6.05 12.95 6.3 13.57 6.3 14.31C6.3 15.05 6.06 15.68 5.58 16.2ZM6.66 12.12C6.54 11.96 6.42 11.82 6.3 11.7C6.18 11.58 6.04 11.46 5.88 11.34L10.5 6.78C10.78 7.02 11.02 7.26 11.22 7.5L6.66 12.12ZM11.64 6.36C10.68 5.44 9.56 4.88 8.28 4.68L10.5 2.46L15.54 7.5L13.32 9.72C13.12 8.44 12.56 7.32 11.64 6.36ZM16.8 6.3L16.32 6.78L11.22 1.68L11.7 1.2C11.82 1.12 11.96 1.08 12.12 1.08C12.28 1.08 12.4 1.12 12.48 1.2L16.8 5.52C16.88 5.6 16.92 5.72 16.92 5.88C16.92 6.04 16.88 6.18 16.8 6.3Z" fill="#050B20"/>
</svg>
