<svg width="108" height="26" viewBox="0 0 108 26" fill="none" xmlns="http://www.w3.org/2000/svg">
<g clip-path="url(#clip0_5_2958)">
<g clip-path="url(#clip1_5_2958)">
<g clip-path="url(#clip2_5_2958)">
<path d="M7.20844 0.499969C11.1984 0.499969 12.9134 2.35497 12.9134 6.13497V7.00997C12.9134 9.52997 12.1434 11.14 10.4284 11.945C12.4934 12.75 13.2984 14.605 13.2984 17.195V19.19C13.2984 22.97 11.3034 25 7.45344 25H1.39844V0.499969H7.20844ZM6.96344 13.975H5.24844V21.5H7.45344C8.74844 21.5 9.44844 20.905 9.44844 19.085V16.95C9.44844 14.675 8.71344 13.975 6.96344 13.975ZM7.10344 3.99997H5.24844V10.475H6.75344C8.18844 10.475 9.06344 9.84497 9.06344 7.88497V6.51997C9.06344 4.76997 8.46844 3.99997 7.10344 3.99997ZM20.9022 6.13497V19.365C20.9022 21.115 21.6722 21.78 22.8972 21.78C24.1222 21.78 24.8922 21.115 24.8922 19.365V6.13497C24.8922 4.38497 24.1222 3.71997 22.8972 3.71997C21.6722 3.71997 20.9022 4.38497 20.9022 6.13497ZM17.0522 19.12V6.37997C17.0522 2.45997 19.1172 0.219971 22.8972 0.219971C26.6772 0.219971 28.7422 2.45997 28.7422 6.37997V19.12C28.7422 23.04 26.6772 25.28 22.8972 25.28C19.1172 25.28 17.0522 23.04 17.0522 19.12ZM41.7564 0.499969H45.3264L41.3014 12.4L45.6064 25H41.5464L38.3964 15.305L35.2114 25H31.6064L35.9114 12.4L31.8864 0.499969H35.8764L38.7814 9.52997L41.7564 0.499969ZM56.2828 15.865H59.9228V19.12C59.9228 23.04 57.9628 25.28 54.1828 25.28C50.4028 25.28 48.4428 23.04 48.4428 19.12V6.37997C48.4428 2.45997 50.4028 0.219971 54.1828 0.219971C57.9628 0.219971 59.9228 2.45997 59.9228 6.37997V8.75997H56.2828V6.13497C56.2828 4.38497 55.5128 3.71997 54.2878 3.71997C53.0628 3.71997 52.2928 4.38497 52.2928 6.13497V19.365C52.2928 21.115 53.0628 21.745 54.2878 21.745C55.5128 21.745 56.2828 21.115 56.2828 19.365V15.865ZM72.5488 0.499969L76.4688 25H72.5838L71.9188 20.555H67.1938L66.5288 25H62.9938L66.9138 0.499969H72.5488ZM69.5388 4.83997L67.6838 17.23H71.3938L69.5388 4.83997ZM91.9817 25H88.0617C87.8517 24.37 87.7117 23.985 87.7117 21.99V18.14C87.7117 15.865 86.9417 15.025 85.1917 15.025H83.8617V25H80.0117V0.499969H85.8217C89.8117 0.499969 91.5267 2.35497 91.5267 6.13497V8.05997C91.5267 10.58 90.7217 12.225 89.0067 13.03C90.9317 13.835 91.5617 15.69 91.5617 18.245V22.025C91.5617 23.215 91.5967 24.09 91.9817 25ZM85.7167 3.99997H83.8617V11.525H85.3667C86.8017 11.525 87.6767 10.895 87.6767 8.93497V6.51997C87.6767 4.76997 87.0817 3.99997 85.7167 3.99997ZM95.3537 6.37997C95.3537 2.45997 97.2787 0.219971 101.023 0.219971C104.768 0.219971 106.693 2.45997 106.693 6.37997V7.14997H103.053V6.13497C103.053 4.38497 102.353 3.71997 101.128 3.71997C99.9037 3.71997 99.2037 4.38497 99.2037 6.13497C99.2037 11.175 106.728 12.12 106.728 19.12C106.728 23.04 104.768 25.28 100.988 25.28C97.2087 25.28 95.2487 23.04 95.2487 19.12V17.615H98.8887V19.365C98.8887 21.115 99.6587 21.745 100.883 21.745C102.108 21.745 102.878 21.115 102.878 19.365C102.878 14.325 95.3537 13.38 95.3537 6.37997Z" fill="white"/>
</g>
</g>
</g>
<defs>
<clipPath id="clip0_5_2958">
<rect width="108" height="26" fill="white"/>
</clipPath>
<clipPath id="clip1_5_2958">
<rect width="108" height="26" fill="white"/>
</clipPath>
<clipPath id="clip2_5_2958">
<rect width="108" height="26" fill="white"/>
</clipPath>
</defs>
</svg>
