<svg width="20" height="20" viewBox="0 0 20 20" fill="none" xmlns="http://www.w3.org/2000/svg">
<path d="M13.1333 3.73327C12.3777 3.73327 11.711 3.97771 11.1333 4.4666C10.5555 4.95549 10.1999 5.55549 10.0666 6.2666H1.8666C1.68882 6.2666 1.54438 6.32216 1.43327 6.43327C1.32216 6.54438 1.2666 6.68882 1.2666 6.8666C1.2666 7.04438 1.32216 7.19993 1.43327 7.33327C1.54438 7.4666 1.68882 7.53327 1.8666 7.53327H10.0666C10.1999 8.24438 10.5555 8.83327 11.1333 9.29993C11.711 9.7666 12.3777 9.99993 13.1333 9.99993C13.8888 9.99993 14.5444 9.7666 15.0999 9.29993C15.6555 8.83327 16.0222 8.24438 16.1999 7.53327H18.1333C18.311 7.53327 18.4555 7.4666 18.5666 7.33327C18.6777 7.19993 18.7333 7.04438 18.7333 6.8666C18.7333 6.68882 18.6777 6.54438 18.5666 6.43327C18.4555 6.32216 18.311 6.2666 18.1333 6.2666H16.1999C16.0222 5.55549 15.6555 4.95549 15.0999 4.4666C14.5444 3.97771 13.8888 3.73327 13.1333 3.73327ZM13.1333 4.99993C13.6666 4.99993 14.111 5.18882 14.4666 5.5666C14.8222 5.94438 14.9999 6.38882 14.9999 6.89993C14.9999 7.41105 14.8222 7.84438 14.4666 8.19993C14.111 8.55549 13.6666 8.73327 13.1333 8.73327C12.5999 8.73327 12.1555 8.55549 11.7999 8.19993C11.4444 7.84438 11.2666 7.41105 11.2666 6.89993C11.2666 6.38882 11.4444 5.94438 11.7999 5.5666C12.1555 5.18882 12.5999 4.99993 13.1333 4.99993ZM6.8666 9.99993C6.11105 9.99993 5.45549 10.2333 4.89994 10.6999C4.34438 11.1666 3.97771 11.7777 3.79994 12.5333H1.8666C1.68882 12.5333 1.54438 12.5888 1.43327 12.6999C1.32216 12.811 1.2666 12.9555 1.2666 13.1333C1.2666 13.311 1.32216 13.4555 1.43327 13.5666C1.54438 13.6777 1.68882 13.7333 1.8666 13.7333H3.79994C3.97771 14.4888 4.34438 15.0999 4.89994 15.5666C5.45549 16.0333 6.11105 16.2666 6.8666 16.2666C7.62216 16.2666 8.28882 16.0333 8.8666 15.5666C9.44438 15.0999 9.79994 14.4888 9.93327 13.7333H18.1333C18.311 13.7333 18.4555 13.6777 18.5666 13.5666C18.6777 13.4555 18.7333 13.311 18.7333 13.1333C18.7333 12.9555 18.6777 12.811 18.5666 12.6999C18.4555 12.5888 18.311 12.5333 18.1333 12.5333H9.93327C9.79994 11.7777 9.44438 11.1666 8.8666 10.6999C8.28882 10.2333 7.62216 9.99993 6.8666 9.99993ZM6.8666 11.2666C7.39994 11.2666 7.84438 11.4444 8.19994 11.7999C8.55549 12.1555 8.73327 12.5999 8.73327 13.1333C8.73327 13.6666 8.55549 14.111 8.19994 14.4666C7.84438 14.8222 7.39994 14.9999 6.8666 14.9999C6.33327 14.9999 5.88882 14.8222 5.53327 14.4666C5.17771 14.111 4.99994 13.6666 4.99994 13.1333C4.99994 12.5999 5.17771 12.1555 5.53327 11.7999C5.88882 11.4444 6.33327 11.2666 6.8666 11.2666Z" fill="#050B20"/>
</svg>
