<svg width="6" height="10" viewBox="0 0 6 10" fill="none" xmlns="http://www.w3.org/2000/svg">
<path d="M0 5C0 4.8 0.0777778 4.63333 0.233333 4.5L4.53333 0.2C4.66667 0.0666666 4.82778 -9.53674e-07 5.01667 -9.53674e-07C5.20556 -9.53674e-07 5.37222 0.0666666 5.51667 0.2C5.66111 0.333333 5.73333 0.499999 5.73333 0.7C5.73333 0.9 5.65556 1.06667 5.5 1.2L1.7 5L5.5 8.8C5.63333 8.93333 5.7 9.1 5.7 9.3C5.7 9.5 5.63333 9.66667 5.5 9.8C5.36667 9.93333 5.20556 10 5.01667 10C4.82778 10 4.66667 9.93333 4.53333 9.8L0.233333 5.5C0.0777778 5.36667 0 5.2 0 5Z" fill="#050B20"/>
</svg>
