<svg width="150" height="381" viewBox="0 0 150 381" fill="none" xmlns="http://www.w3.org/2000/svg">
<path fill-rule="evenodd" clip-rule="evenodd" d="M147.175 269.39C149.849 253.41 150.458 219.186 148.457 198.146C147.549 188.206 144.651 172.719 142.247 164.744C136.684 146.32 122.465 118.624 108.125 98.1793C93.5028 77.3754 74.5579 55.9335 52.4178 35.0308L44.6233 27.6684L48.0387 28.8673C49.917 29.5362 55.3813 31.4733 60.1572 33.1551L68.8604 36.2439L72.0694 35.2118C78.1476 33.2693 88.012 26.287 87.4463 24.3381C87.2163 23.5196 83.9724 21.6808 81.4687 20.9627C80.2993 20.6493 78.0948 19.6092 76.6318 18.626C74.7248 17.3582 73.5306 16.8727 72.5254 17.0054C71.6601 17.0573 67.1587 15.8512 61.0368 13.8088C43.3697 7.987 36.9317 5.62343 30.9344 2.76302L25.1239 -3.45707e-05L21.7091 0.740448C15.2901 2.18956 0.972901 11.668 0.0446491 15.1323C-0.416521 16.8534 2.52605 22.1117 15.1877 42.2011C20.8216 51.184 30.5686 67.3233 36.7197 78.1713L47.9929 97.794L50.8512 97.1882C56.2795 95.9939 68.9618 87.8511 69.7068 85.0709C69.8487 84.5413 63.5921 68.4385 61.0589 62.8879L59.556 59.6708L61.8238 61.8867C65.9553 65.9736 81.639 83.9638 86.4126 90.0675C97.6464 104.453 109.224 122.762 116.144 137.009C126.378 158.127 132.66 179.96 134.12 199.578C135.874 222.775 135.345 245.314 132.644 267.223C131.376 277.336 123.584 306.419 119.796 315.171C113.231 330.227 100.667 351.432 89.5249 366.184C86.3577 370.326 85.2764 371.36 80.8704 374.035C75.5235 377.308 73.1232 380 74.916 380.811C77.6647 382.115 89.5185 376.446 96.0663 370.633C101.307 366.078 105.446 360.872 113.046 349.452C122.926 334.646 130.092 321.406 136.291 306.654C139.287 299.534 145.886 276.849 147.087 269.366L147.175 269.39Z" fill="#323232"/>
</svg>
