<svg width="18" height="18" viewBox="0 0 18 18" fill="none" xmlns="http://www.w3.org/2000/svg">
<path d="M2.99996 1.67982C2.43996 1.67982 1.95996 1.87982 1.55996 2.27982C1.15996 2.67982 0.959961 3.16982 0.959961 3.74982C0.959961 4.32982 1.15996 4.81982 1.55996 5.21982C1.95996 5.61982 2.43996 5.81982 2.99996 5.81982C3.55996 5.81982 4.03996 5.61982 4.43996 5.21982C4.83996 4.81982 5.03996 4.32982 5.03996 3.74982C5.03996 3.16982 4.83996 2.67982 4.43996 2.27982C4.03996 1.87982 3.55996 1.67982 2.99996 1.67982ZM2.99996 2.81982C3.23996 2.81982 3.45996 2.90982 3.65996 3.08982C3.85996 3.26982 3.95996 3.48982 3.95996 3.74982C3.95996 4.00982 3.85996 4.22982 3.65996 4.40982C3.45996 4.58982 3.23996 4.67982 2.99996 4.67982C2.75996 4.67982 2.53996 4.58982 2.33996 4.40982C2.13996 4.22982 2.03996 4.00982 2.03996 3.74982C2.03996 3.48982 2.13996 3.26982 2.33996 3.08982C2.53996 2.90982 2.75996 2.81982 2.99996 2.81982ZM2.99996 12.1798C2.43996 12.1798 1.95996 12.3798 1.55996 12.7798C1.15996 13.1798 0.959961 13.6698 0.959961 14.2498C0.959961 14.8298 1.15996 15.3198 1.55996 15.7198C1.95996 16.1198 2.43996 16.3198 2.99996 16.3198C3.55996 16.3198 4.03996 16.1198 4.43996 15.7198C4.83996 15.3198 5.03996 14.8298 5.03996 14.2498C5.03996 13.6698 4.83996 13.1798 4.43996 12.7798C4.03996 12.3798 3.55996 12.1798 2.99996 12.1798ZM2.99996 13.3198C3.23996 13.3198 3.45996 13.4098 3.65996 13.5898C3.85996 13.7698 3.95996 13.9898 3.95996 14.2498C3.95996 14.5098 3.85996 14.7298 3.65996 14.9098C3.45996 15.0898 3.23996 15.1798 2.99996 15.1798C2.75996 15.1798 2.53996 15.0898 2.33996 14.9098C2.13996 14.7298 2.03996 14.5098 2.03996 14.2498C2.03996 13.9898 2.13996 13.7698 2.33996 13.5898C2.53996 13.4098 2.75996 13.3198 2.99996 13.3198ZM8.99996 1.67982C8.43996 1.67982 7.95996 1.87982 7.55996 2.27982C7.15996 2.67982 6.95996 3.16982 6.95996 3.74982C6.95996 4.32982 7.15996 4.81982 7.55996 5.21982C7.95996 5.61982 8.43996 5.81982 8.99996 5.81982C9.55996 5.81982 10.04 5.61982 10.44 5.21982C10.84 4.81982 11.04 4.32982 11.04 3.74982C11.04 3.16982 10.84 2.67982 10.44 2.27982C10.04 1.87982 9.55996 1.67982 8.99996 1.67982ZM8.99996 2.81982C9.23996 2.81982 9.45996 2.90982 9.65996 3.08982C9.85996 3.26982 9.95996 3.48982 9.95996 3.74982C9.95996 4.00982 9.85996 4.22982 9.65996 4.40982C9.45996 4.58982 9.23996 4.67982 8.99996 4.67982C8.75996 4.67982 8.53996 4.58982 8.33996 4.40982C8.13996 4.22982 8.03996 4.00982 8.03996 3.74982C8.03996 3.48982 8.13996 3.26982 8.33996 3.08982C8.53996 2.90982 8.75996 2.81982 8.99996 2.81982ZM8.99996 12.1798C8.43996 12.1798 7.95996 12.3798 7.55996 12.7798C7.15996 13.1798 6.95996 13.6698 6.95996 14.2498C6.95996 14.8298 7.15996 15.3198 7.55996 15.7198C7.95996 16.1198 8.43996 16.3198 8.99996 16.3198C9.55996 16.3198 10.04 16.1198 10.44 15.7198C10.84 15.3198 11.04 14.8298 11.04 14.2498C11.04 13.6698 10.84 13.1798 10.44 12.7798C10.04 12.3798 9.55996 12.1798 8.99996 12.1798ZM8.99996 13.3198C9.23996 13.3198 9.45996 13.4098 9.65996 13.5898C9.85996 13.7698 9.95996 13.9898 9.95996 14.2498C9.95996 14.5098 9.85996 14.7298 9.65996 14.9098C9.45996 15.0898 9.23996 15.1798 8.99996 15.1798C8.75996 15.1798 8.53996 15.0898 8.33996 14.9098C8.13996 14.7298 8.03996 14.5098 8.03996 14.2498C8.03996 13.9898 8.13996 13.7698 8.33996 13.5898C8.53996 13.4098 8.75996 13.3198 8.99996 13.3198ZM15 1.67982C14.44 1.67982 13.96 1.87982 13.56 2.27982C13.16 2.67982 12.96 3.16982 12.96 3.74982C12.96 4.32982 13.16 4.81982 13.56 5.21982C13.96 5.61982 14.44 5.81982 15 5.81982C15.56 5.81982 16.04 5.61982 16.44 5.21982C16.84 4.81982 17.04 4.32982 17.04 3.74982C17.04 3.16982 16.84 2.67982 16.44 2.27982C16.04 1.87982 15.56 1.67982 15 1.67982ZM15 2.81982C15.24 2.81982 15.46 2.90982 15.66 3.08982C15.86 3.26982 15.96 3.48982 15.96 3.74982C15.96 4.00982 15.86 4.22982 15.66 4.40982C15.46 4.58982 15.24 4.67982 15 4.67982C14.76 4.67982 14.54 4.58982 14.34 4.40982C14.14 4.22982 14.04 4.00982 14.04 3.74982C14.04 3.48982 14.14 3.26982 14.34 3.08982C14.54 2.90982 14.76 2.81982 15 2.81982ZM15 12.1798C14.44 12.1798 13.96 12.3798 13.56 12.7798C13.16 13.1798 12.96 13.6698 12.96 14.2498C12.96 14.8298 13.16 15.3198 13.56 15.7198C13.96 16.1198 14.44 16.3198 15 16.3198C15.56 16.3198 16.04 16.1198 16.44 15.7198C16.84 15.3198 17.04 14.8298 17.04 14.2498C17.04 13.6698 16.84 13.1798 16.44 12.7798C16.04 12.3798 15.56 12.1798 15 12.1798ZM15 13.3198C15.24 13.3198 15.46 13.4098 15.66 13.5898C15.86 13.7698 15.96 13.9898 15.96 14.2498C15.96 14.5098 15.86 14.7298 15.66 14.9098C15.46 15.0898 15.24 15.1798 15 15.1798C14.76 15.1798 14.54 15.0898 14.34 14.9098C14.14 14.7298 14.04 14.5098 14.04 14.2498C14.04 13.9898 14.14 13.7698 14.34 13.5898C14.54 13.4098 14.76 13.3198 15 13.3198ZM2.45996 5.21982V12.7198C2.45996 12.8798 2.50996 13.0198 2.60996 13.1398C2.70996 13.2598 2.83996 13.3198 2.99996 13.3198C3.15996 13.3198 3.28996 13.2598 3.38996 13.1398C3.48996 13.0198 3.53996 12.8998 3.53996 12.7798V5.21982C3.53996 5.09982 3.48996 4.97982 3.38996 4.85982C3.28996 4.73982 3.15996 4.67982 2.99996 4.67982C2.83996 4.67982 2.70996 4.73982 2.60996 4.85982C2.50996 4.97982 2.45996 5.09982 2.45996 5.21982ZM8.45996 5.21982V12.7198C8.45996 12.8798 8.50996 13.0198 8.60996 13.1398C8.70996 13.2598 8.83996 13.3198 8.99996 13.3198C9.15996 13.3198 9.28996 13.2598 9.38996 13.1398C9.48996 13.0198 9.53996 12.8998 9.53996 12.7798V5.21982C9.53996 5.09982 9.48996 4.97982 9.38996 4.85982C9.28996 4.73982 9.15996 4.67982 8.99996 4.67982C8.83996 4.67982 8.70996 4.73982 8.60996 4.85982C8.50996 4.97982 8.45996 5.09982 8.45996 5.21982ZM14.46 5.21982V8.21982C14.46 8.29982 14.44 8.35982 14.4 8.39982C14.36 8.43982 14.32 8.45982 14.28 8.45982H2.99996C2.83996 8.45982 2.70996 8.50982 2.60996 8.60982C2.50996 8.70982 2.45996 8.83982 2.45996 8.99982C2.45996 9.15982 2.50996 9.28982 2.60996 9.38982C2.70996 9.48982 2.83996 9.53982 2.99996 9.53982H14.28C14.64 9.53982 14.94 9.41982 15.18 9.17982C15.42 8.93982 15.54 8.61982 15.54 8.21982V5.27982C15.54 5.11982 15.49 4.97982 15.39 4.85982C15.29 4.73982 15.16 4.67982 15 4.67982C14.84 4.67982 14.71 4.73982 14.61 4.85982C14.51 4.97982 14.46 5.09982 14.46 5.21982Z" fill="#405FF2"/>
</svg>
