<svg width="34" height="34" viewBox="0 0 34 34" fill="none" xmlns="http://www.w3.org/2000/svg">
<path d="M26.5625 13.8124H25.3194C25.1795 13.8133 25.0409 13.7865 24.9115 13.7336C24.782 13.6807 24.6643 13.6028 24.565 13.5043L21.7387 10.6781C21.0418 9.9811 20.2132 9.42962 19.3012 9.0557C18.3891 8.68177 17.4119 8.49286 16.4263 8.49995H7.4375C6.02854 8.49995 4.67728 9.05966 3.681 10.0559C2.68471 11.0522 2.125 12.4035 2.125 13.8124V19.1249C2.125 19.9703 2.46083 20.7811 3.0586 21.3789C3.65637 21.9766 4.46712 22.3124 5.3125 22.3124C5.3125 23.2987 5.7043 24.2446 6.4017 24.942C7.0991 25.6394 8.04498 26.0312 9.03125 26.0312C10.0175 26.0312 10.9634 25.6394 11.6608 24.942C12.3582 24.2446 12.75 23.2987 12.75 22.3124H20.2938C20.4112 23.2014 20.8478 24.0174 21.5221 24.6085C22.1965 25.1996 23.0626 25.5255 23.9594 25.5255C24.8561 25.5255 25.7223 25.1996 26.3966 24.6085C27.071 24.0174 27.5075 23.2014 27.625 22.3124H28.6875C29.5329 22.3124 30.3436 21.9766 30.9414 21.3789C31.5392 20.7811 31.875 19.9703 31.875 19.1249C31.875 17.716 31.3153 16.3647 30.319 15.3684C29.3227 14.3722 27.9715 13.8124 26.5625 13.8124ZM16.4794 10.6249C17.1775 10.6237 17.869 10.7601 18.5144 11.0262C19.1598 11.2924 19.7464 11.6832 20.2406 12.1762L21.8769 13.8124H8.755C8.55699 13.8138 8.36253 13.7598 8.19357 13.6566C8.0246 13.5533 7.88785 13.4049 7.79875 13.2281L6.56625 10.7631C6.84804 10.6734 7.14178 10.6268 7.4375 10.6249H16.4794ZM4.25 19.1249V13.8124C4.25058 13.1672 4.44694 12.5374 4.81313 12.0062L5.87563 14.1312C6.13626 14.6733 6.54495 15.1305 7.05446 15.4501C7.56398 15.7698 8.15353 15.9387 8.755 15.9374H14.875V20.1874H12.3781C12.0797 19.5519 11.6064 19.0144 11.0137 18.638C10.421 18.2615 9.7334 18.0616 9.03125 18.0616C8.3291 18.0616 7.64146 18.2615 7.04876 18.638C6.45607 19.0144 5.98282 19.5519 5.68437 20.1874H5.3125C5.03071 20.1874 4.76046 20.0755 4.5612 19.8763C4.36194 19.677 4.25 19.4067 4.25 19.1249ZM9.03125 23.3749C8.71604 23.3749 8.4079 23.2815 8.14581 23.1064C7.88372 22.9312 7.67944 22.6823 7.55882 22.3911C7.43819 22.0999 7.40663 21.7794 7.46812 21.4703C7.52962 21.1611 7.68141 20.8771 7.9043 20.6542C8.12719 20.4314 8.41117 20.2796 8.72032 20.2181C9.02948 20.1566 9.34993 20.1881 9.64115 20.3088C9.93237 20.4294 10.1813 20.6337 10.3564 20.8958C10.5315 21.1578 10.625 21.466 10.625 21.7812C10.625 22.2039 10.4571 22.6093 10.1582 22.9081C9.85932 23.207 9.45394 23.3749 9.03125 23.3749ZM23.9062 23.3749C23.591 23.3749 23.2829 23.2815 23.0208 23.1064C22.7587 22.9312 22.5544 22.6823 22.4338 22.3911C22.3132 22.0999 22.2816 21.7794 22.3431 21.4703C22.4046 21.1611 22.5564 20.8771 22.7793 20.6542C23.0022 20.4314 23.2862 20.2796 23.5953 20.2181C23.9045 20.1566 24.2249 20.1881 24.5162 20.3088C24.8074 20.4294 25.0563 20.6337 25.2314 20.8958C25.4065 21.1578 25.5 21.466 25.5 21.7812C25.5 22.2039 25.3321 22.6093 25.0332 22.9081C24.7343 23.207 24.3289 23.3749 23.9062 23.3749ZM28.6875 20.1874H27.2531C26.9547 19.5519 26.4814 19.0144 25.8887 18.638C25.296 18.2615 24.6084 18.0616 23.9062 18.0616C23.2041 18.0616 22.5165 18.2615 21.9238 18.638C21.3311 19.0144 20.8578 19.5519 20.5594 20.1874H17V15.9374H26.5625C27.0081 15.9398 27.4482 16.0356 27.8545 16.2186C28.2608 16.4017 28.6242 16.6678 28.9212 16.9999H28.6875C28.4057 16.9999 28.1355 17.1119 27.9362 17.3111C27.7369 17.5104 27.625 17.7807 27.625 18.0624C27.625 18.3442 27.7369 18.6145 27.9362 18.8138C28.1355 19.013 28.4057 19.1249 28.6875 19.1249H29.75C29.75 19.4067 29.6381 19.677 29.4388 19.8763C29.2395 20.0755 28.9693 20.1874 28.6875 20.1874Z" fill="#050B20"/>
</svg>
