<svg width="18" height="18" viewBox="0 0 18 18" fill="none" xmlns="http://www.w3.org/2000/svg">
<g clip-path="url(#clip0_9_659)">
<path d="M10.68 3.36C10.68 3.2 10.63 3.07 10.53 2.97C10.43 2.87 10.3 2.82 10.14 2.82H4.50004C4.34004 2.82 4.21004 2.87 4.11004 2.97C4.01004 3.07 3.96004 3.2 3.96004 3.36V7.86C3.96004 8.02 4.01004 8.16 4.11004 8.28C4.21004 8.4 4.34004 8.46 4.50004 8.46H10.14C10.3 8.46 10.43 8.4 10.53 8.28C10.63 8.16 10.68 8.02 10.68 7.86V3.36ZM9.54004 7.32H5.04004V3.96H9.54004V7.32ZM17.16 3.96L14.88 2.88C14.76 2.8 14.62 2.78 14.46 2.82C14.3 2.86 14.19 2.95 14.13 3.09C14.07 3.23 14.06 3.38 14.1 3.54C14.14 3.7 14.24 3.8 14.4 3.84L15.24 4.32L15.18 4.5C15.18 4.86 15.29 5.18 15.51 5.46C15.73 5.74 16 5.94 16.32 6.06V12.9C16.32 13.06 16.26 13.2 16.14 13.32C16.02 13.44 15.89 13.5 15.75 13.5C15.61 13.5 15.48 13.44 15.36 13.32C15.24 13.2 15.18 13.06 15.18 12.9V8.4C15.18 7.76 14.95 7.18 14.49 6.66C14.03 6.14 13.52 5.82 12.96 5.7V2.22C12.96 1.62 12.74 1.1 12.3 0.66C11.86 0.220001 11.34 0 10.74 0H3.96004C3.36004 0 2.83004 0.220001 2.37004 0.66C1.91004 1.1 1.68004 1.62 1.68004 2.22V14.82L0.900039 15.24C0.660039 15.36 0.540039 15.52 0.540039 15.72V17.4C0.540039 17.56 0.600039 17.7 0.720039 17.82C0.840039 17.94 0.980039 18 1.14004 18H13.5C13.66 18 13.79 17.94 13.89 17.82C13.99 17.7 14.04 17.56 14.04 17.4V15.72C14.04 15.52 13.94 15.36 13.74 15.24L12.96 14.82V6.84C13.24 6.96 13.49 7.17 13.71 7.47C13.93 7.77 14.04 8.08 14.04 8.4V12.9C14.04 13.38 14.21 13.79 14.55 14.13C14.89 14.47 15.29 14.64 15.75 14.64C16.21 14.64 16.61 14.47 16.95 14.13C17.29 13.79 17.46 13.38 17.46 12.9V4.5C17.46 4.26 17.36 4.08 17.16 3.96ZM12.96 16.86H1.68004V16.08L2.52004 15.66C2.72004 15.58 2.82004 15.42 2.82004 15.18V2.22C2.82004 1.94 2.93004 1.69 3.15004 1.47C3.37004 1.25 3.64004 1.14 3.96004 1.14H10.74C11.02 1.14 11.27 1.25 11.49 1.47C11.71 1.69 11.82 1.94 11.82 2.22V15.18C11.82 15.42 11.92 15.58 12.12 15.66L12.96 16.08V16.86Z" fill="#405FF2"/>
</g>
<defs>
<clipPath id="clip0_9_659">
<rect width="18" height="18" fill="white" transform="matrix(1 0 0 -1 0 18)"/>
</clipPath>
</defs>
</svg>
