<svg width="18" height="18" viewBox="0 0 18 18" fill="none" xmlns="http://www.w3.org/2000/svg">
<g clip-path="url(#clip0_9_747)">
<path d="M17.46 6.71993H15.78C15.62 6.71993 15.48 6.77993 15.36 6.89993C15.24 7.01993 15.18 7.15993 15.18 7.31993V7.85993H14.64V7.31993C14.64 7.15993 14.58 7.02993 14.46 6.92993C14.34 6.82993 14.2 6.77993 14.04 6.77993H13.2L11.64 5.21993C11.6 5.17993 11.54 5.13993 11.46 5.09993C11.38 5.05993 11.32 5.03993 11.28 5.03993H9.54V3.95993H10.68C10.84 3.95993 10.98 3.89993 11.1 3.77993C11.22 3.65993 11.28 3.51993 11.28 3.35993C11.28 3.19993 11.22 3.06993 11.1 2.96993C10.98 2.86993 10.84 2.81993 10.68 2.81993H5.64C5.48 2.81993 5.34 2.86993 5.22 2.96993C5.1 3.06993 5.04 3.19993 5.04 3.35993C5.04 3.51993 5.1 3.65993 5.22 3.77993C5.34 3.89993 5.48 3.95993 5.64 3.95993H6.78V5.03993H5.04L4.8 5.15993L4.62 5.27993L3.66 6.71993H2.28C2.12 6.71993 1.98 6.77993 1.86 6.89993C1.74 7.01993 1.68 7.15993 1.68 7.31993V8.99993H1.14V7.31993C1.14 7.15993 1.08 7.02993 0.96 6.92993C0.84 6.82993 0.7 6.76993 0.54 6.74993C0.38 6.72993 0.25 6.77993 0.15 6.89993C0.05 7.01993 0 7.15993 0 7.31993V12.3599C0 12.5199 0.05 12.6599 0.15 12.7799C0.25 12.8999 0.38 12.9599 0.54 12.9599C0.7 12.9599 0.84 12.8999 0.96 12.7799C1.08 12.6599 1.14 12.5199 1.14 12.3599V10.1399H1.68V12.3599C1.68 12.5199 1.74 12.6599 1.86 12.7799C1.98 12.8999 2.1 12.9599 2.22 12.9599H3.6L4.56 14.8799L4.68 14.9999L4.8 15.1199L5.04 15.1799H11.82C11.9 15.1799 11.98 15.1599 12.06 15.1199L12.24 14.9999L14.34 12.3599H15.18V12.9599C15.18 13.1199 15.24 13.2499 15.36 13.3499C15.48 13.4499 15.62 13.4999 15.78 13.4999H17.46C17.62 13.4999 17.75 13.4499 17.85 13.3499C17.95 13.2499 18 13.1199 18 12.9599V7.31993C18 7.15993 17.95 7.02993 17.85 6.92993C17.75 6.82993 17.62 6.77993 17.46 6.77993V6.71993ZM16.86 12.3599H16.32V11.8199C16.32 11.6599 16.26 11.5199 16.14 11.3999C16.02 11.2799 15.9 11.2199 15.78 11.2199L14.04 11.2799L13.8 11.3399L13.62 11.4599L11.52 14.0399H5.4L4.44 12.0599L4.32 11.9399L4.02 11.8199H2.82V7.85993H3.96H4.14L4.32 7.73993L5.34 6.17993H7.32C7.48 6.17993 7.61 6.12993 7.71 6.02993C7.81 5.92993 7.86 5.79993 7.86 5.63993V3.95993H8.46V5.63993C8.46 5.79993 8.51 5.92993 8.61 6.02993C8.71 6.12993 8.84 6.17993 9 6.17993H11.04L12.54 7.67993C12.58 7.75993 12.64 7.80993 12.72 7.82993C12.8 7.84993 12.88 7.85993 12.96 7.85993H13.5V8.45993C13.5 8.61993 13.55 8.74993 13.65 8.84993C13.75 8.94993 13.88 8.99993 14.04 8.99993H15.78C15.9 8.99993 16.02 8.94993 16.14 8.84993C16.26 8.74993 16.32 8.61993 16.32 8.45993V7.85993H16.86V12.3599ZM10.98 7.97993C10.86 7.89993 10.73 7.86993 10.59 7.88993C10.45 7.90993 10.32 7.97993 10.2 8.09993L7.92 11.5799L6.54 10.4999C6.42 10.4199 6.28 10.3899 6.12 10.4099C5.96 10.4299 5.83 10.4999 5.73 10.6199C5.63 10.7399 5.59 10.8799 5.61 11.0399C5.63 11.1999 5.7 11.3199 5.82 11.3999L7.68 12.8399C7.8 12.9199 7.92 12.9599 8.04 12.9599H8.1C8.26 12.9199 8.38 12.8199 8.46 12.6599L11.16 8.75993C11.24 8.63993 11.27 8.49993 11.25 8.33993C11.23 8.17993 11.14 8.05993 10.98 7.97993Z" fill="#050B20"/>
</g>
<defs>
<clipPath id="clip0_9_747">
<rect width="18" height="18" fill="white" transform="matrix(1 0 0 -1 0 18)"/>
</clipPath>
</defs>
</svg>
