<svg width="12" height="12" viewBox="0 0 12 12" fill="none" xmlns="http://www.w3.org/2000/svg">
<g clip-path="url(#clip0_9_1512)">
<path d="M9.15735 6.6L4.00166 11.76C3.8418 11.92 3.64862 12 3.42215 12C3.19567 12 2.99584 11.92 2.82265 11.76C2.64946 11.6 2.56287 11.4 2.56287 11.16C2.56287 10.92 2.65612 10.72 2.84263 10.56L7.39882 6L2.84263 1.44C2.65612 1.28 2.56287 1.08 2.56287 0.84C2.56287 0.6 2.64946 0.400001 2.82265 0.240001C2.99584 0.0799999 3.19567 0 3.42215 0C3.64862 0 3.8418 0.0799999 4.00166 0.240001L9.15735 5.4C9.34386 5.56 9.43712 5.76 9.43712 6C9.43712 6.24 9.34386 6.44 9.15735 6.6Z" fill="white"/>
</g>
<defs>
<clipPath id="clip0_9_1512">
<rect width="11.96" height="12" fill="white" transform="matrix(1 0 0 -1 0 12)"/>
</clipPath>
</defs>
</svg>
