<svg width="10" height="12" viewBox="0 0 10 12" fill="none" xmlns="http://www.w3.org/2000/svg">
<path d="M3.2 5.6C3.09333 5.6 3 5.56 2.92 5.48C2.84 5.4 2.8 5.30667 2.8 5.2V4C2.77333 3.84 2.83333 3.71333 2.98 3.62C3.12667 3.52667 3.27333 3.52667 3.42 3.62C3.56667 3.71333 3.62667 3.84 3.6 4V5.2C3.6 5.30667 3.56 5.4 3.48 5.48C3.4 5.56 3.30667 5.6 3.2 5.6ZM4.8 5.6C4.69333 5.6 4.6 5.56 4.52 5.48C4.44 5.4 4.4 5.30667 4.4 5.2V3.6C4.4 3.49333 4.44 3.40667 4.52 3.34C4.6 3.27333 4.69333 3.24 4.8 3.24C4.90667 3.24 5 3.27333 5.08 3.34C5.16 3.40667 5.2 3.49333 5.2 3.6V5.2C5.2 5.30667 5.16 5.4 5.08 5.48C5 5.56 4.90667 5.6 4.8 5.6ZM6.4 5.6C6.29333 5.6 6.2 5.56 6.12 5.48C6.04 5.4 6 5.30667 6 5.2V2.8C5.97333 2.64 6.03333 2.51333 6.18 2.42C6.32667 2.32667 6.47333 2.32667 6.62 2.42C6.76667 2.51333 6.82667 2.64 6.8 2.8V5.2C6.8 5.30667 6.76 5.4 6.68 5.48C6.6 5.56 6.50667 5.6 6.4 5.6ZM8 12H1.6C1.14667 12 0.766667 11.8467 0.46 11.54C0.153333 11.2333 0 10.8533 0 10.4V3.16C0 2.86667 0.06 2.58 0.18 2.3C0.3 2.02 0.48 1.78667 0.72 1.6L2.12 0.48C2.46667 0.16 2.88 0 3.36 0H8C8.45333 0 8.83333 0.153334 9.14 0.46C9.44667 0.766667 9.6 1.14667 9.6 1.6V10.4C9.6 10.8533 9.44667 11.2333 9.14 11.54C8.83333 11.8467 8.45333 12 8 12ZM3.36 0.8C3.09333 0.8 2.85333 0.893333 2.64 1.08L1.24 2.24C0.946667 2.48 0.8 2.78667 0.8 3.16V10.4C0.8 10.6133 0.88 10.8 1.04 10.96C1.2 11.12 1.38667 11.2 1.6 11.2H8C8.21333 11.2 8.4 11.12 8.56 10.96C8.72 10.8 8.8 10.6133 8.8 10.4V1.6C8.8 1.38667 8.72 1.2 8.56 1.04C8.4 0.88 8.21333 0.8 8 0.8H3.36ZM7.2 9.6H2.4C2.24 9.62667 2.11333 9.56667 2.02 9.42C1.92667 9.27333 1.92667 9.12667 2.02 8.98C2.11333 8.83333 2.24 8.77333 2.4 8.8H7.2C7.36 8.77333 7.48667 8.83333 7.58 8.98C7.67333 9.12667 7.67333 9.27333 7.58 9.42C7.48667 9.56667 7.36 9.62667 7.2 9.6ZM7.2 7.6H2.4C2.29333 7.6 2.20667 7.56 2.14 7.48C2.07333 7.4 2.04 7.30667 2.04 7.2C2.04 7.09333 2.07333 7 2.14 6.92C2.20667 6.84 2.29333 6.8 2.4 6.8H7.2C7.36 6.77333 7.48667 6.83333 7.58 6.98C7.67333 7.12667 7.67333 7.27333 7.58 7.42C7.48667 7.56667 7.36 7.62667 7.2 7.6Z" fill="#050B20"/>
</svg>
