<svg width="40" height="40" viewBox="0 0 40 40" fill="none" xmlns="http://www.w3.org/2000/svg">
<rect width="40" height="40" rx="20" fill="#405FF2" fill-opacity="0.1"/>
<path fill-rule="evenodd" clip-rule="evenodd" d="M20 13.8125C17.0084 13.8125 14.5625 16.2943 14.5625 19.3816C14.5625 20.9384 15.1852 22.6625 16.2041 23.9938C17.2256 25.3287 18.5776 26.1875 20 26.1875C21.4224 26.1875 22.7744 25.3287 23.796 23.9938C24.8148 22.6625 25.4375 20.9384 25.4375 19.3816C25.4375 16.2943 22.9916 13.8125 20 13.8125ZM13.4375 19.3816C13.4375 15.6961 16.3642 12.6875 20 12.6875C23.6358 12.6875 26.5625 15.6961 26.5625 19.3816C26.5625 21.2113 25.8421 23.1714 24.6894 24.6775C23.5393 26.1803 21.8913 27.3125 20 27.3125C18.1087 27.3125 16.4607 26.1803 15.3106 24.6775C14.158 23.1714 13.4375 21.2113 13.4375 19.3816Z" fill="#405FF2"/>
<path fill-rule="evenodd" clip-rule="evenodd" d="M17.5625 18.875C17.5625 17.5288 18.6538 16.4375 20 16.4375C21.3462 16.4375 22.4375 17.5288 22.4375 18.875C22.4375 20.2212 21.3462 21.3125 20 21.3125C18.6538 21.3125 17.5625 20.2212 17.5625 18.875ZM20 17.5625C19.2751 17.5625 18.6875 18.1501 18.6875 18.875C18.6875 19.5999 19.2751 20.1875 20 20.1875C20.7249 20.1875 21.3125 19.5999 21.3125 18.875C21.3125 18.1501 20.7249 17.5625 20 17.5625Z" fill="#405FF2"/>
</svg>
