<svg width="12" height="12" viewBox="0 0 12 12" fill="none" xmlns="http://www.w3.org/2000/svg">
<g clip-path="url(#clip0_9_1286)">
<path d="M9.15747 6.6L4.00179 11.76C3.84192 11.92 3.64875 12 3.42227 12C3.19579 12 2.99596 11.92 2.82277 11.76C2.64958 11.6 2.56299 11.4 2.56299 11.16C2.56299 10.92 2.65624 10.72 2.84275 10.56L7.39894 6L2.84275 1.44C2.65624 1.28 2.56299 1.08 2.56299 0.84C2.56299 0.6 2.64958 0.400001 2.82277 0.240001C2.99596 0.0799999 3.19579 0 3.42227 0C3.64875 0 3.84192 0.0799999 4.00179 0.240001L9.15747 5.4C9.34398 5.56 9.43724 5.76 9.43724 6C9.43724 6.24 9.34398 6.44 9.15747 6.6Z" fill="#050B20"/>
</g>
<defs>
<clipPath id="clip0_9_1286">
<rect width="11.96" height="12" fill="white" transform="matrix(1 0 0 -1 0 12)"/>
</clipPath>
</defs>
</svg>
