<svg width="13" height="17" viewBox="0 0 13 17" fill="none" xmlns="http://www.w3.org/2000/svg">
<path d="M6.50002 3.46663C5.66946 3.46663 4.95626 3.76455 4.36043 4.36038C3.76459 4.95622 3.46668 5.66941 3.46668 6.49997C3.46668 7.33053 3.76459 8.04373 4.36043 8.63956C4.95626 9.2354 5.66946 9.53331 6.50002 9.53331C7.33058 9.53331 8.04377 9.2354 8.63961 8.63956C9.23544 8.04373 9.53336 7.33053 9.53336 6.49997C9.53336 5.66941 9.23544 4.95622 8.63961 4.36038C8.04377 3.76455 7.33058 3.46663 6.50002 3.46663ZM6.50002 8.23331C6.03057 8.23331 5.62432 8.07081 5.28127 7.74581C4.93821 7.42081 4.76668 7.01456 4.76668 6.52705C4.76668 6.03955 4.93821 5.62427 5.28127 5.28122C5.62432 4.93816 6.03057 4.76663 6.50002 4.76663C6.96947 4.76663 7.37572 4.93816 7.71877 5.28122C8.06183 5.62427 8.23336 6.03955 8.23336 6.52705C8.23336 7.01456 8.06183 7.42081 7.71877 7.74581C7.37572 8.07081 6.96947 8.23331 6.50002 8.23331ZM6.50002 -4.97443e-05C5.30835 -4.97443e-05 4.21598 0.28884 3.22293 0.86662C2.22987 1.4444 1.44445 2.23885 0.866669 3.24996C0.28889 4.26107 0 5.34441 0 6.49997V6.71664C0 8.5222 1.02917 10.6166 3.08751 13C3.7014 13.6861 4.38751 14.3722 5.14585 15.0583C5.50696 15.4194 5.83196 15.7083 6.12085 15.925L6.50002 16.25L6.87919 15.925C7.16808 15.7083 7.49308 15.4194 7.85419 15.0583C8.61253 14.3722 9.29864 13.6861 9.91253 13C11.9709 10.6166 13 8.5222 13 6.71664V6.49997C13 5.34441 12.7111 4.26107 12.1334 3.24996C11.5556 2.23885 10.7702 1.4444 9.77711 0.86662C8.78405 0.28884 7.69169 -4.97443e-05 6.50002 -4.97443e-05ZM11.7542 6.71664C11.7542 8.01664 11.032 9.56942 9.58753 11.375C8.72086 12.4944 7.69169 13.5778 6.50002 14.625C5.30835 13.5778 4.27918 12.4944 3.41251 11.375C1.96806 9.56942 1.24584 8.01664 1.24584 6.71664V6.49997C1.24584 5.56108 1.48056 4.69441 1.95001 3.89996C2.41945 3.10552 3.06043 2.46454 3.87293 1.97704C4.68543 1.48954 5.56113 1.24579 6.50002 1.24579C7.43891 1.24579 8.31461 1.48954 9.12711 1.97704C9.93961 2.46454 10.5806 3.10552 11.05 3.89996C11.5195 4.69441 11.7542 5.56108 11.7542 6.49997V6.71664Z" fill="white"/>
</svg>
