<svg width="34" height="23" viewBox="0 0 34 23" fill="none" xmlns="http://www.w3.org/2000/svg">
<mask id="mask0_5_810" style="mask-type:luminance" maskUnits="userSpaceOnUse" x="0" y="-6" width="34" height="35">
<path d="M34 -5.91309H0V28.0869H34V-5.91309Z" fill="white"/>
</mask>
<g mask="url(#mask0_5_810)">
<path d="M32.8913 15.5217H31.7826V9.97831C31.7826 8.14421 30.2905 6.65221 28.4565 6.65221H24.8209L23.3616 2.27421C22.908 0.913949 21.6399 0 20.2061 0C20.0334 0 8.04731 0 7.76083 0C6.31543 0 5.08313 0.92696 4.62546 2.21737H3.32609C1.49208 2.21737 0 3.70945 0 5.54341V9.97831C0 11.8123 1.49208 13.3043 3.32609 13.3043H4.43481V15.5217H3.32609C2.71382 15.5217 2.21737 16.0181 2.21737 16.6304C2.21737 17.2428 2.71376 17.7392 3.32609 17.7392C4.36442 17.7392 5.6104 17.7392 6.65218 17.7392C6.65218 20.1845 8.64164 22.174 11.087 22.174C13.5323 22.174 15.5218 20.1845 15.5218 17.7392H20.6957C20.6957 20.1845 22.6852 22.174 25.1305 22.174C27.5759 22.174 29.5653 20.1845 29.5653 17.7392C30.6074 17.7392 31.8538 17.7392 32.8914 17.7392C33.5037 17.7392 34.0001 17.2428 34.0001 16.6304C34.0001 16.0181 33.5036 15.5217 32.8913 15.5217ZM4.43481 11.0869H3.32609C2.71475 11.0869 2.21737 10.5895 2.21737 9.97821V5.54341C2.21737 4.93201 2.71475 4.43471 3.32609 4.43471H4.43481C4.43481 5.14111 4.43481 10.4019 4.43481 11.0869ZM15.5217 2.21737H17.3696H20.2061C20.6841 2.21737 21.1068 2.52204 21.2579 2.97539L22.4834 6.65211H15.5217V2.21737ZM6.65218 3.32602C6.65218 2.71468 7.14956 2.2173 7.7609 2.2173H13.3044V6.65211H6.65218V3.32602ZM11.087 19.9565C9.86432 19.9565 8.86962 18.9618 8.86962 17.7391C8.86962 16.5164 9.86432 15.5217 11.087 15.5217C12.3097 15.5217 13.3044 16.5164 13.3044 17.7391C13.3044 18.9618 12.3097 19.9565 11.087 19.9565ZM25.1304 19.9565C23.9078 19.9565 22.9131 18.9618 22.9131 17.7391C22.9131 16.5164 23.9078 15.5217 25.1304 15.5217C26.3531 15.5217 27.3478 16.5164 27.3478 17.7391C27.3478 18.9618 26.3531 19.9565 25.1304 19.9565ZM29.5652 15.5217H28.9686C28.2005 14.1975 26.7683 13.3043 25.1304 13.3043C23.4926 13.3043 22.0604 14.1975 21.2923 15.5217H14.9251C14.1571 14.1975 12.7248 13.3043 11.087 13.3043C9.44914 13.3043 8.01689 14.1975 7.24884 15.5217H6.65225V12.1956V8.86951C8.46022 8.86951 27.2694 8.86951 28.4566 8.86951C29.0679 8.86951 29.5653 9.36691 29.5653 9.97831L29.5652 15.5217Z" fill="#050B20"/>
<path d="M18.8495 11.0869H16.6321C16.0198 11.0869 15.5234 11.5833 15.5234 12.1956C15.5234 12.8079 16.0198 13.3043 16.6321 13.3043H18.8495C19.4617 13.3043 19.9582 12.808 19.9582 12.1956C19.9582 11.5833 19.4618 11.0869 18.8495 11.0869Z" fill="#050B20"/>
</g>
</svg>
