<svg width="20" height="20" viewBox="0 0 20 20" fill="none" xmlns="http://www.w3.org/2000/svg">
<path d="M17.3047 3.2812C17.0964 3.09891 16.8424 3.00776 16.543 3.00776C16.2435 3.00776 15.9635 3.09891 15.7031 3.2812L13.2812 5.70307C12.1875 5.31245 11.0938 5.11714 10 5.11714C8.09896 5.14318 6.34766 5.63797 4.74609 6.60151C3.14453 7.56505 1.90104 8.86714 1.01562 10.5078C1.14583 10.7682 1.40625 11.1588 1.79688 11.6796V11.7187C2.57812 12.7604 3.54167 13.6588 4.6875 14.414L3.00781 16.0937C2.79948 16.302 2.6888 16.5624 2.67578 16.8749C2.66276 17.1874 2.76693 17.4544 2.98828 17.6757C3.20964 17.8971 3.47656 18.0143 3.78906 18.0273C4.10156 18.0403 4.375 17.9296 4.60938 17.6953L17.3047 4.88276C17.513 4.64839 17.6172 4.37495 17.6172 4.06245C17.6172 3.74995 17.513 3.48953 17.3047 3.2812ZM6.71875 12.3046L5.39062 13.5937C4.11458 12.8645 3.08594 11.901 2.30469 10.7031C3.52865 8.98432 5.09115 7.81245 6.99219 7.18745C6.34115 7.89057 5.98958 8.73042 5.9375 9.70698C5.88542 10.6835 6.14583 11.5494 6.71875 12.3046ZM10.1172 8.98432C9.85677 8.74995 9.73958 8.45698 9.76562 8.10542C9.79167 7.75385 9.9349 7.44787 10.1953 7.18745C10.4557 7.00516 10.7422 6.91401 11.0547 6.91401C11.3672 6.91401 11.6536 7.00516 11.9141 7.18745L10.1172 8.98432ZM18.2812 9.49214C17.7083 8.6588 17.1094 8.0338 16.4844 7.61714L15.5078 8.5937C16.3411 9.2187 17.0443 9.94787 17.6172 10.7812C16.7578 12.1093 15.6445 13.1445 14.2773 13.8867C12.9102 14.6289 11.4453 14.9999 9.88281 14.9999H9.10156L8.08594 16.0156C8.39844 15.9635 8.84115 15.9505 9.41406 15.9765L10 16.0156C11.6406 16.0156 13.1966 15.6315 14.668 14.8632C16.1393 14.095 17.3438 13.0468 18.2812 11.7187C18.3854 11.5624 18.5221 11.3541 18.6914 11.0937C18.8607 10.8333 18.9974 10.638 19.1016 10.5078C18.9974 10.4036 18.8607 10.2343 18.6914 9.99995C18.5221 9.76557 18.3854 9.5963 18.2812 9.49214ZM13.9844 9.99995L10 13.9843C11.0938 13.9843 12.0312 13.5937 12.8125 12.8124C13.5938 12.0312 13.9844 11.0937 13.9844 9.99995Z" fill="#050B20"/>
</svg>
