<svg width="18" height="18" viewBox="0 0 18 18" fill="none" xmlns="http://www.w3.org/2000/svg">
<path d="M17.52 7.26L10.74 0.48C10.42 0.16 10.04 0 9.6 0H1.56C1.12 0 0.75 0.15 0.45 0.450001C0.15 0.75 0 1.12 0 1.56V16.44C0 16.88 0.15 17.25 0.45 17.55C0.75 17.85 1.12 18 1.56 18H10.08C10.28 18 10.42 17.9 10.5 17.7C11.1 16.5 11.98 15.54 13.14 14.82C14.3 14.1 15.56 13.74 16.92 13.74H17.46C17.62 13.74 17.75 13.69 17.85 13.59C17.95 13.49 18 13.36 18 13.2V8.4C18 7.96 17.84 7.58 17.52 7.26ZM16.92 12.72C15.36 12.72 13.92 13.12 12.6 13.92C11.4 14.68 10.44 15.68 9.72 16.92H1.56C1.44 16.92 1.33 16.87 1.23 16.77C1.13 16.67 1.08 16.56 1.08 16.44V1.56C1.08 1.44 1.13 1.33 1.23 1.23C1.33 1.13 1.44 1.08 1.56 1.08H9.6C9.76 1.08 9.9 1.12 10.02 1.2L16.8 7.98C16.88 8.1 16.92 8.24 16.92 8.4V12.72ZM15.72 8.46L9.54 2.28C9.46 2.16 9.34 2.1 9.18 2.1H2.64C2.48 2.1 2.35 2.15 2.25 2.25C2.15 2.35 2.1 2.48 2.1 2.64V9C2.1 9.16 2.15 9.29 2.25 9.39C2.35 9.49 2.48 9.54 2.64 9.54H15.3C15.46 9.54 15.59 9.49 15.69 9.39C15.79 9.29 15.84 9.16 15.84 9V8.82C15.84 8.66 15.8 8.54 15.72 8.46ZM3.18 8.46V3.18H8.94L14.22 8.46H3.18ZM5.82 11.64H2.64C2.48 11.64 2.35 11.69 2.25 11.79C2.15 11.89 2.1 12.02 2.1 12.18V12.72C2.1 13.28 2.31 13.77 2.73 14.19C3.15 14.61 3.65 14.82 4.23 14.82C4.81 14.82 5.3 14.61 5.7 14.19C6.1 13.77 6.3 13.28 6.3 12.72V12.18C6.3 12.02 6.25 11.89 6.15 11.79C6.05 11.69 5.94 11.64 5.82 11.64ZM4.2 13.74C3.92 13.74 3.68 13.64 3.48 13.44C3.28 13.24 3.18 12.98 3.18 12.66H5.28C5.28 12.98 5.18 13.24 4.98 13.44C4.78 13.64 4.52 13.74 4.2 13.74Z" fill="#050B20"/>
</svg>
