<svg width="46" height="87" viewBox="0 0 46 87" fill="none" xmlns="http://www.w3.org/2000/svg">
<g filter="url(#filter0_d_10_2016)">
<g clip-path="url(#clip0_10_2016)">
<rect x="3" y="2" width="40" height="81" rx="2" fill="white"/>
<g clip-path="url(#clip1_10_2016)">
<g clip-path="url(#clip2_10_2016)">
<g clip-path="url(#clip3_10_2016)">
<path d="M32 20H25V13H21V20H14V24H21V31H25V24H32V20Z" fill="#666666"/>
</g>
</g>
</g>
<rect width="30" height="1" transform="translate(8 42)" fill="#E6E6E6"/>
<g clip-path="url(#clip4_10_2016)">
<g clip-path="url(#clip5_10_2016)">
<path d="M14 61H32V65H14V61Z" fill="#666666"/>
</g>
</g>
</g>
</g>
<defs>
<filter id="filter0_d_10_2016" x="0" y="0" width="46" height="87" filterUnits="userSpaceOnUse" color-interpolation-filters="sRGB">
<feFlood flood-opacity="0" result="BackgroundImageFix"/>
<feColorMatrix in="SourceAlpha" type="matrix" values="0 0 0 0 0 0 0 0 0 0 0 0 0 0 0 0 0 0 127 0" result="hardAlpha"/>
<feMorphology radius="1" operator="erode" in="SourceAlpha" result="effect1_dropShadow_10_2016"/>
<feOffset dy="1"/>
<feGaussianBlur stdDeviation="2"/>
<feComposite in2="hardAlpha" operator="out"/>
<feColorMatrix type="matrix" values="0 0 0 0 0 0 0 0 0 0 0 0 0 0 0 0 0 0 0.3 0"/>
<feBlend mode="normal" in2="BackgroundImageFix" result="effect1_dropShadow_10_2016"/>
<feBlend mode="normal" in="SourceGraphic" in2="effect1_dropShadow_10_2016" result="shape"/>
</filter>
<clipPath id="clip0_10_2016">
<rect x="3" y="2" width="40" height="81" rx="2" fill="white"/>
</clipPath>
<clipPath id="clip1_10_2016">
<rect width="18" height="18" fill="white" transform="translate(14 13)"/>
</clipPath>
<clipPath id="clip2_10_2016">
<rect width="18" height="18" fill="white" transform="translate(14 13)"/>
</clipPath>
<clipPath id="clip3_10_2016">
<rect width="18" height="18" fill="white" transform="translate(14 13)"/>
</clipPath>
<clipPath id="clip4_10_2016">
<rect width="18" height="18" fill="white" transform="translate(14 54)"/>
</clipPath>
<clipPath id="clip5_10_2016">
<rect width="18" height="18" fill="white" transform="translate(14 54)"/>
</clipPath>
</defs>
</svg>
