<svg width="20" height="22" viewBox="0 0 20 22" fill="none" xmlns="http://www.w3.org/2000/svg">
<g clip-path="url(#clip0_10_2084)">
<path fill-rule="evenodd" clip-rule="evenodd" d="M10.0007 2.0625C5.67944 2.0625 2.14648 5.64734 2.14648 10.1068C2.14648 12.3555 3.0459 14.8458 4.51763 16.7689C5.99316 18.697 7.94611 19.9375 10.0007 19.9375C12.0552 19.9375 14.0081 18.697 15.4837 16.7689C16.9554 14.8458 17.8548 12.3555 17.8548 10.1068C17.8548 5.64734 14.3218 2.0625 10.0007 2.0625ZM0.521484 10.1068C0.521484 4.78329 4.74892 0.4375 10.0007 0.4375C15.2523 0.4375 19.4798 4.78329 19.4798 10.1068C19.4798 12.7496 18.4391 15.5809 16.7742 17.7564C15.113 19.9271 12.7326 21.5625 10.0007 21.5625C7.26872 21.5625 4.88833 19.9271 3.22715 17.7564C1.56216 15.5809 0.521484 12.7496 0.521484 10.1068Z" fill="#050B20"/>
<path fill-rule="evenodd" clip-rule="evenodd" d="M6.47852 9.37508C6.47852 7.43058 8.05488 5.85425 9.99936 5.85425C11.9438 5.85425 13.5202 7.43058 13.5202 9.37508C13.5202 11.3196 11.9438 12.8959 9.99936 12.8959C8.05488 12.8959 6.47852 11.3196 6.47852 9.37508ZM9.99936 7.47925C8.95232 7.47925 8.10352 8.32804 8.10352 9.37508C8.10352 10.4221 8.95232 11.2709 9.99936 11.2709C11.0464 11.2709 11.8952 10.4221 11.8952 9.37508C11.8952 8.32804 11.0464 7.47925 9.99936 7.47925Z" fill="#E1E1E1"/>
</g>
<defs>
<clipPath id="clip0_10_2084">
<rect width="20" height="22" fill="white"/>
</clipPath>
</defs>
</svg>
