<svg width="18" height="18" viewBox="0 0 18 18" fill="none" xmlns="http://www.w3.org/2000/svg">
<g clip-path="url(#clip0_9_681)">
<path d="M7.80004 17.3999C7.24004 17.3999 6.78004 17.2199 6.42004 16.8599L1.14004 11.5799C0.740039 11.1799 0.540039 10.7099 0.540039 10.1699C0.540039 9.6299 0.740039 9.1599 1.14004 8.7599L8.22004 1.6799C8.98004 0.919903 9.90004 0.539904 10.98 0.539904H15.48C16.04 0.539904 16.51 0.739904 16.89 1.1399C17.27 1.5399 17.46 1.9999 17.46 2.5199V7.0199C17.46 8.0999 17.08 8.9999 16.32 9.7199L9.18004 16.8599C8.82004 17.2199 8.36004 17.3999 7.80004 17.3999ZM10.98 1.8599C10.26 1.8599 9.66004 2.1199 9.18004 2.6399L2.10004 9.7199C1.94004 9.8399 1.86004 9.9899 1.86004 10.1699C1.86004 10.3499 1.94004 10.5199 2.10004 10.6799L7.32004 15.8999C7.44004 16.0599 7.60004 16.1399 7.80004 16.1399C8.00004 16.1399 8.16004 16.0599 8.28004 15.8999L15.36 8.8199C15.88 8.3399 16.14 7.7399 16.14 7.0199V2.5199C16.14 2.3599 16.07 2.2099 15.93 2.0699C15.79 1.9299 15.64 1.8599 15.48 1.8599H10.98ZM12.66 7.2599C12.14 7.2599 11.68 7.0599 11.28 6.6599C10.88 6.2599 10.68 5.7899 10.68 5.2499C10.68 4.7099 10.88 4.2499 11.28 3.8699C11.68 3.4899 12.15 3.2999 12.69 3.2999C13.23 3.2999 13.69 3.4899 14.07 3.8699C14.45 4.2499 14.64 4.7099 14.64 5.2499C14.64 5.7899 14.45 6.2599 14.07 6.6599C13.69 7.0599 13.22 7.2599 12.66 7.2599ZM12.66 4.6199C12.5 4.6199 12.35 4.6799 12.21 4.7999C12.07 4.9199 12 5.0699 12 5.2499C12 5.4299 12.07 5.5899 12.21 5.7299C12.35 5.8699 12.51 5.9399 12.69 5.9399C12.87 5.9399 13.02 5.8699 13.14 5.7299C13.26 5.5899 13.32 5.4299 13.32 5.2499C13.32 5.0699 13.26 4.9199 13.14 4.7999C13.02 4.6799 12.86 4.6199 12.66 4.6199Z" fill="#050B20"/>
</g>
<defs>
<clipPath id="clip0_9_681">
<rect width="18" height="18" fill="white" transform="matrix(1 0 0 -1 0 18)"/>
</clipPath>
</defs>
</svg>
