<svg width="6" height="10" viewBox="0 0 6 10" fill="none" xmlns="http://www.w3.org/2000/svg">
<path d="M5.49448 5.5L1.1988 9.8C1.0656 9.93333 0.904647 10 0.715948 10C0.527248 10 0.360749 9.93333 0.216449 9.8C0.0721498 9.66667 0 9.5 0 9.3C0 9.1 0.0776998 8.93333 0.233099 8.8L4.02929 5L0.233099 1.2C0.0776998 1.06667 0 0.9 0 0.7C0 0.499999 0.0721498 0.333333 0.216449 0.2C0.360749 0.0666666 0.527248 -9.53674e-07 0.715948 -9.53674e-07C0.904647 -9.53674e-07 1.0656 0.0666666 1.1988 0.2L5.49448 4.5C5.64988 4.63333 5.72758 4.8 5.72758 5C5.72758 5.2 5.64988 5.36667 5.49448 5.5Z" fill="#050B20"/>
</svg>
