<svg width="839" height="146" viewBox="0 0 839 146" fill="none" xmlns="http://www.w3.org/2000/svg">
<g clip-path="url(#clip0_5_4350)">
<path d="M14.9363 51.7597C14.9363 34.1994 27.8414 19.6531 44.6851 17.0875C42.9486 16.8229 41.1701 16.6857 39.3597 16.6857C19.9888 16.6857 4.28548 32.3891 4.28548 51.7599C4.28548 71.1308 19.9888 86.8341 39.3597 86.8341C41.1701 86.8341 42.9486 86.6968 44.6851 86.4321C27.8415 83.8664 14.9363 69.3203 14.9363 51.7597Z" fill="white" fill-opacity="0.2"/>
<path d="M38.7821 90.5066C17.4169 90.5066 0.035191 73.1249 0.035191 51.7597C0.035191 30.3946 17.4169 13.0128 38.7821 13.0128C60.1472 13.0128 77.5289 30.3946 77.5289 51.7597C77.5289 73.1249 60.1472 90.5066 38.7821 90.5066ZM38.7821 20.3582C21.4672 20.3582 7.38057 34.4448 7.38057 51.7597C7.38057 69.0747 21.4672 83.1613 38.7821 83.1613C56.097 83.1613 70.1836 69.0747 70.1836 51.7597C70.1836 34.4448 56.097 20.3582 38.7821 20.3582Z" fill="#405FF2"/>
<path d="M90.3824 107.106C89.4425 107.106 88.5025 106.747 87.7852 106.03L71.35 89.5948C69.9158 88.1605 69.9158 85.8349 71.35 84.4008C72.7843 82.9664 75.1099 82.9664 76.544 84.4008L92.9793 100.836C94.4136 102.27 94.4136 104.596 92.9793 106.03C92.2622 106.747 91.3222 107.106 90.3824 107.106ZM43.2156 62.1592L57.7296 47.5541C59.1594 46.1153 59.1521 43.79 57.7132 42.3602C56.2748 40.9306 53.9495 40.9374 52.5193 42.3765L38.0025 56.9846C37.2336 57.76 36.2137 58.1871 35.1306 58.1871C34.0475 58.1871 33.0276 57.76 32.2589 56.9846L25.2292 49.8941C23.8011 48.4537 21.4758 48.4435 20.0352 49.8718C18.5948 51.2999 18.5849 53.6252 20.0129 55.0657L27.0428 62.1561C29.2016 64.3334 32.0738 65.5323 35.1307 65.5323C38.1878 65.5323 41.06 64.3334 43.2156 62.1592Z" fill="white"/>
</g>
<defs>
<clipPath id="clip0_5_4350">
<rect width="94" height="94" fill="white" transform="translate(0 13.0128) scale(1.00099)"/>
</clipPath>
</defs>
</svg>
