<svg width="18" height="18" viewBox="0 0 18 18" fill="none" xmlns="http://www.w3.org/2000/svg">
<path d="M14.52 1.38H13.86V0.720001C13.86 0.52 13.79 0.35 13.65 0.210001C13.51 0.0699997 13.34 0 13.14 0C12.94 0 12.77 0.0699997 12.63 0.210001C12.49 0.35 12.42 0.52 12.42 0.720001V1.38H5.58V0.720001C5.58 0.52 5.51 0.35 5.37 0.210001C5.23 0.0699997 5.06 0 4.86 0C4.66 0 4.49 0.0699997 4.35 0.210001C4.21 0.35 4.14 0.52 4.14 0.720001V1.38H3.48C2.84 1.38 2.26 1.54 1.74 1.86C1.22 2.18 0.8 2.6 0.48 3.12C0.16 3.64 0 4.22 0 4.86V14.52C0 15.16 0.16 15.74 0.48 16.26C0.8 16.78 1.22 17.2 1.74 17.52C2.26 17.84 2.84 18 3.48 18H14.52C15.16 18 15.74 17.84 16.26 17.52C16.78 17.2 17.2 16.78 17.52 16.26C17.84 15.74 18 15.16 18 14.52V4.86C18 4.22 17.84 3.64 17.52 3.12C17.2 2.6 16.78 2.18 16.26 1.86C15.74 1.54 15.16 1.38 14.52 1.38ZM3.48 2.82H4.14V4.14C4.14 4.34 4.21 4.51 4.35 4.65C4.49 4.79 4.66 4.86 4.86 4.86C5.06 4.86 5.23 4.79 5.37 4.65C5.51 4.51 5.58 4.34 5.58 4.14V2.82H12.42V4.14C12.42 4.34 12.49 4.51 12.63 4.65C12.77 4.79 12.94 4.86 13.14 4.86C13.34 4.86 13.51 4.79 13.65 4.65C13.79 4.51 13.86 4.34 13.86 4.14V2.82H14.52C15.08 2.82 15.57 3.02 15.99 3.42C16.41 3.82 16.62 4.3 16.62 4.86V5.52H1.38V4.86C1.38 4.3 1.59 3.82 2.01 3.42C2.43 3.02 2.92 2.82 3.48 2.82ZM14.52 16.62H3.48C2.92 16.62 2.43 16.41 2.01 15.99C1.59 15.57 1.38 15.08 1.38 14.52V6.96H16.62V14.52C16.62 15.08 16.41 15.57 15.99 15.99C15.57 16.41 15.08 16.62 14.52 16.62ZM6.24 9.72C6.24 9.92 6.17 10.08 6.03 10.2C5.89 10.32 5.72 10.38 5.52 10.38H4.14C3.94 10.38 3.78 10.32 3.66 10.2C3.54 10.08 3.48 9.92 3.48 9.72C3.48 9.52 3.54 9.35 3.66 9.21C3.78 9.07 3.94 9 4.14 9H5.52C5.72 9 5.89 9.07 6.03 9.21C6.17 9.35 6.24 9.52 6.24 9.72ZM14.52 9.72C14.52 9.92 14.46 10.08 14.34 10.2C14.22 10.32 14.06 10.38 13.86 10.38H12.48C12.28 10.38 12.11 10.32 11.97 10.2C11.83 10.08 11.76 9.92 11.76 9.72C11.76 9.52 11.83 9.35 11.97 9.21C12.11 9.07 12.28 9 12.48 9H13.86C14.06 9 14.22 9.07 14.34 9.21C14.46 9.35 14.52 9.52 14.52 9.72ZM10.38 9.72C10.38 9.92 10.31 10.08 10.17 10.2C10.03 10.32 9.86 10.38 9.66 10.38H8.28C8.12 10.38 7.97 10.32 7.83 10.2C7.69 10.08 7.62 9.92 7.62 9.72C7.62 9.52 7.69 9.35 7.83 9.21C7.97 9.07 8.12 9 8.28 9H9.66C9.86 9 10.03 9.07 10.17 9.21C10.31 9.35 10.38 9.52 10.38 9.72ZM6.24 13.86C6.24 14.06 6.17 14.23 6.03 14.37C5.89 14.51 5.72 14.58 5.52 14.58H4.14C3.94 14.58 3.78 14.51 3.66 14.37C3.54 14.23 3.48 14.06 3.48 13.86C3.48 13.66 3.54 13.49 3.66 13.35C3.78 13.21 3.94 13.14 4.14 13.14H5.52C5.72 13.14 5.89 13.21 6.03 13.35C6.17 13.49 6.24 13.66 6.24 13.86ZM14.52 13.86C14.52 14.06 14.46 14.23 14.34 14.37C14.22 14.51 14.06 14.58 13.86 14.58H12.48C12.28 14.58 12.11 14.51 11.97 14.37C11.83 14.23 11.76 14.06 11.76 13.86C11.76 13.66 11.83 13.49 11.97 13.35C12.11 13.21 12.28 13.14 12.48 13.14H13.86C14.06 13.14 14.22 13.21 14.34 13.35C14.46 13.49 14.52 13.66 14.52 13.86ZM10.38 13.86C10.38 14.06 10.31 14.23 10.17 14.37C10.03 14.51 9.86 14.58 9.66 14.58H8.28C8.12 14.58 7.97 14.51 7.83 14.37C7.69 14.23 7.62 14.06 7.62 13.86C7.62 13.66 7.69 13.49 7.83 13.35C7.97 13.21 8.12 13.14 8.28 13.14H9.66C9.86 13.14 10.03 13.21 10.17 13.35C10.31 13.49 10.38 13.66 10.38 13.86Z" fill="#405FF2"/>
</svg>
