<svg width="22" height="22" viewBox="0 0 22 22" fill="none" xmlns="http://www.w3.org/2000/svg">
<g clip-path="url(#clip0_9_785)">
<path d="M8.06686 10.2667C7.87131 10.2667 7.7002 10.1933 7.55353 10.0467C7.40686 9.9 7.33353 9.72889 7.33353 9.53333V7.33333C7.28464 7.04 7.39464 6.80778 7.66353 6.63667C7.93242 6.46556 8.20131 6.46556 8.4702 6.63667C8.73908 6.80778 8.84908 7.04 8.8002 7.33333V9.53333C8.8002 9.72889 8.72686 9.9 8.58019 10.0467C8.43353 10.1933 8.26242 10.2667 8.06686 10.2667ZM11.0002 10.2667C10.8046 10.2667 10.6335 10.1933 10.4869 10.0467C10.3402 9.9 10.2669 9.72889 10.2669 9.53333V6.6C10.2669 6.40444 10.3402 6.24556 10.4869 6.12333C10.6335 6.00111 10.8046 5.94 11.0002 5.94C11.1958 5.94 11.3669 6.00111 11.5135 6.12333C11.6602 6.24556 11.7335 6.40444 11.7335 6.6V9.53333C11.7335 9.72889 11.6602 9.9 11.5135 10.0467C11.3669 10.1933 11.1958 10.2667 11.0002 10.2667ZM13.9335 10.2667C13.738 10.2667 13.5669 10.1933 13.4202 10.0467C13.2735 9.9 13.2002 9.72889 13.2002 9.53333V5.13333C13.1513 4.84 13.2613 4.60778 13.5302 4.43667C13.7991 4.26556 14.068 4.26556 14.3369 4.43667C14.6058 4.60778 14.7158 4.84 14.6669 5.13333V9.53333C14.6669 9.72889 14.5935 9.9 14.4469 10.0467C14.3002 10.1933 14.1291 10.2667 13.9335 10.2667ZM16.8669 22H5.13353C4.30242 22 3.60575 21.7189 3.04353 21.1567C2.48131 20.5944 2.2002 19.8978 2.2002 19.0667V5.79333C2.2002 5.25556 2.3102 4.73 2.5302 4.21667C2.7502 3.70333 3.0802 3.27556 3.5202 2.93333L6.08686 0.880001C6.72242 0.293335 7.4802 0 8.3602 0H16.8669C17.698 0 18.3946 0.281113 18.9569 0.843334C19.5191 1.40556 19.8002 2.10222 19.8002 2.93333V19.0667C19.8002 19.8978 19.5191 20.5944 18.9569 21.1567C18.3946 21.7189 17.698 22 16.8669 22ZM8.3602 1.46667C7.87131 1.46667 7.43131 1.63778 7.04019 1.98L4.47353 4.10667C3.93575 4.54667 3.66686 5.10889 3.66686 5.79333V19.0667C3.66686 19.4578 3.81353 19.8 4.10686 20.0933C4.4002 20.3867 4.74242 20.5333 5.13353 20.5333H16.8669C17.258 20.5333 17.6002 20.3867 17.8935 20.0933C18.1869 19.8 18.3335 19.4578 18.3335 19.0667V2.93333C18.3335 2.54222 18.1869 2.2 17.8935 1.90667C17.6002 1.61333 17.258 1.46667 16.8669 1.46667H8.3602ZM15.4002 17.6H6.60019C6.30686 17.6489 6.07464 17.5389 5.90353 17.27C5.73242 17.0011 5.73242 16.7322 5.90353 16.4633C6.07464 16.1944 6.30686 16.0844 6.60019 16.1333H15.4002C15.6935 16.0844 15.9258 16.1944 16.0969 16.4633C16.268 16.7322 16.268 17.0011 16.0969 17.27C15.9258 17.5389 15.6935 17.6489 15.4002 17.6ZM15.4002 13.9333H6.60019C6.40464 13.9333 6.24575 13.86 6.12353 13.7133C6.00131 13.5667 5.9402 13.3956 5.9402 13.2C5.9402 13.0044 6.00131 12.8333 6.12353 12.6867C6.24575 12.54 6.40464 12.4667 6.60019 12.4667H15.4002C15.6935 12.4178 15.9258 12.5278 16.0969 12.7967C16.268 13.0656 16.268 13.3344 16.0969 13.6033C15.9258 13.8722 15.6935 13.9822 15.4002 13.9333Z" fill="#405FF2"/>
</g>
<defs>
<clipPath id="clip0_9_785">
<rect width="22" height="22" fill="white" transform="matrix(1 0 0 -1 0 22)"/>
</clipPath>
</defs>
</svg>
