<svg width="34" height="35" viewBox="0 0 34 35" fill="none" xmlns="http://www.w3.org/2000/svg">
<path d="M26.5625 13.9022H25.3194C25.1795 13.9031 25.0409 13.8763 24.9115 13.8234C24.782 13.7705 24.6643 13.6926 24.565 13.5941L21.7387 10.7679C21.0418 10.0709 20.2132 9.51946 19.3012 9.14554C18.3891 8.77161 17.4119 8.5827 16.4263 8.58979H7.4375C6.02854 8.58979 4.67728 9.1495 3.681 10.1457C2.68471 11.142 2.125 12.4933 2.125 13.9022V19.2147C2.125 20.0601 2.46083 20.8709 3.0586 21.4687C3.65637 22.0664 4.46712 22.4022 5.3125 22.4022C5.3125 23.3885 5.7043 24.3344 6.4017 25.0318C7.0991 25.7292 8.04498 26.121 9.03125 26.121C10.0175 26.121 10.9634 25.7292 11.6608 25.0318C12.3582 24.3344 12.75 23.3885 12.75 22.4022H20.2938C20.4112 23.2912 20.8478 24.1072 21.5221 24.6983C22.1965 25.2894 23.0626 25.6153 23.9594 25.6153C24.8561 25.6153 25.7223 25.2894 26.3966 24.6983C27.071 24.1072 27.5075 23.2912 27.625 22.4022H28.6875C29.5329 22.4022 30.3436 22.0664 30.9414 21.4687C31.5392 20.8709 31.875 20.0601 31.875 19.2147C31.875 17.8058 31.3153 16.4545 30.319 15.4582C29.3227 14.462 27.9715 13.9022 26.5625 13.9022ZM16.4794 10.7147C17.1775 10.7135 17.869 10.8499 18.5144 11.116C19.1598 11.3822 19.7464 11.773 20.2406 12.266L21.8769 13.9022H8.755C8.55699 13.9036 8.36253 13.8496 8.19357 13.7464C8.0246 13.6431 7.88785 13.4947 7.79875 13.3179L6.56625 10.8529C6.84804 10.7632 7.14178 10.7166 7.4375 10.7147H16.4794ZM4.25 19.2147V13.9022C4.25058 13.257 4.44694 12.6272 4.81313 12.096L5.87563 14.221C6.13626 14.7631 6.54495 15.2203 7.05446 15.5399C7.56398 15.8596 8.15353 16.0285 8.755 16.0272H14.875V20.2772H12.3781C12.0797 19.6417 11.6064 19.1042 11.0137 18.7278C10.421 18.3513 9.7334 18.1514 9.03125 18.1514C8.3291 18.1514 7.64146 18.3513 7.04876 18.7278C6.45607 19.1042 5.98282 19.6417 5.68437 20.2772H5.3125C5.03071 20.2772 4.76046 20.1653 4.5612 19.9661C4.36194 19.7668 4.25 19.4965 4.25 19.2147ZM9.03125 23.4647C8.71604 23.4647 8.4079 23.3713 8.14581 23.1962C7.88372 23.021 7.67944 22.7721 7.55882 22.4809C7.43819 22.1897 7.40663 21.8692 7.46812 21.5601C7.52962 21.2509 7.68141 20.9669 7.9043 20.744C8.12719 20.5212 8.41117 20.3694 8.72032 20.3079C9.02948 20.2464 9.34993 20.2779 9.64115 20.3986C9.93237 20.5192 10.1813 20.7235 10.3564 20.9856C10.5315 21.2476 10.625 21.5558 10.625 21.871C10.625 22.2937 10.4571 22.6991 10.1582 22.9979C9.85932 23.2968 9.45394 23.4647 9.03125 23.4647ZM23.9062 23.4647C23.591 23.4647 23.2829 23.3713 23.0208 23.1962C22.7587 23.021 22.5544 22.7721 22.4338 22.4809C22.3132 22.1897 22.2816 21.8692 22.3431 21.5601C22.4046 21.2509 22.5564 20.9669 22.7793 20.744C23.0022 20.5212 23.2862 20.3694 23.5953 20.3079C23.9045 20.2464 24.2249 20.2779 24.5162 20.3986C24.8074 20.5192 25.0563 20.7235 25.2314 20.9856C25.4065 21.2476 25.5 21.5558 25.5 21.871C25.5 22.2937 25.3321 22.6991 25.0332 22.9979C24.7343 23.2968 24.3289 23.4647 23.9062 23.4647ZM28.6875 20.2772H27.2531C26.9547 19.6417 26.4814 19.1042 25.8887 18.7278C25.296 18.3513 24.6084 18.1514 23.9062 18.1514C23.2041 18.1514 22.5165 18.3513 21.9238 18.7278C21.3311 19.1042 20.8578 19.6417 20.5594 20.2772H17V16.0272H26.5625C27.0081 16.0296 27.4482 16.1254 27.8545 16.3084C28.2608 16.4915 28.6242 16.7576 28.9212 17.0897H28.6875C28.4057 17.0897 28.1355 17.2017 27.9362 17.4009C27.7369 17.6002 27.625 17.8705 27.625 18.1522C27.625 18.434 27.7369 18.7043 27.9362 18.9036C28.1355 19.1028 28.4057 19.2147 28.6875 19.2147H29.75C29.75 19.4965 29.6381 19.7668 29.4388 19.9661C29.2395 20.1653 28.9693 20.2772 28.6875 20.2772Z" fill="#050B20"/>
</svg>
