<svg width="18" height="19" viewBox="0 0 18 19" fill="none" xmlns="http://www.w3.org/2000/svg">
<g id="Icon" clip-path="url(#clip0_2034_857)">
<path id="Vector" d="M14.52 2.35H13.86V1.69C13.86 1.49 13.79 1.32 13.65 1.18C13.51 1.04 13.34 0.970001 13.14 0.970001C12.94 0.970001 12.77 1.04 12.63 1.18C12.49 1.32 12.42 1.49 12.42 1.69V2.35H5.58V1.69C5.58 1.49 5.51 1.32 5.37 1.18C5.23 1.04 5.06 0.970001 4.86 0.970001C4.66 0.970001 4.49 1.04 4.35 1.18C4.21 1.32 4.14 1.49 4.14 1.69V2.35H3.48C2.84 2.35 2.26 2.51 1.74 2.83C1.22 3.15 0.8 3.57 0.48 4.09C0.16 4.61 0 5.19 0 5.83V15.49C0 16.13 0.16 16.71 0.48 17.23C0.8 17.75 1.22 18.17 1.74 18.49C2.26 18.81 2.84 18.97 3.48 18.97H14.52C15.16 18.97 15.74 18.81 16.26 18.49C16.78 18.17 17.2 17.75 17.52 17.23C17.84 16.71 18 16.13 18 15.49V5.83C18 5.19 17.84 4.61 17.52 4.09C17.2 3.57 16.78 3.15 16.26 2.83C15.74 2.51 15.16 2.35 14.52 2.35ZM3.48 3.79H4.14V5.11C4.14 5.31 4.21 5.48 4.35 5.62C4.49 5.76 4.66 5.83 4.86 5.83C5.06 5.83 5.23 5.76 5.37 5.62C5.51 5.48 5.58 5.31 5.58 5.11V3.79H12.42V5.11C12.42 5.31 12.49 5.48 12.63 5.62C12.77 5.76 12.94 5.83 13.14 5.83C13.34 5.83 13.51 5.76 13.65 5.62C13.79 5.48 13.86 5.31 13.86 5.11V3.79H14.52C15.08 3.79 15.57 3.99 15.99 4.39C16.41 4.79 16.62 5.27 16.62 5.83V6.49H1.38V5.83C1.38 5.27 1.59 4.79 2.01 4.39C2.43 3.99 2.92 3.79 3.48 3.79ZM14.52 17.59H3.48C2.92 17.59 2.43 17.38 2.01 16.96C1.59 16.54 1.38 16.05 1.38 15.49V7.93H16.62V15.49C16.62 16.05 16.41 16.54 15.99 16.96C15.57 17.38 15.08 17.59 14.52 17.59ZM6.24 10.69C6.24 10.89 6.17 11.05 6.03 11.17C5.89 11.29 5.72 11.35 5.52 11.35H4.14C3.94 11.35 3.78 11.29 3.66 11.17C3.54 11.05 3.48 10.89 3.48 10.69C3.48 10.49 3.54 10.32 3.66 10.18C3.78 10.04 3.94 9.97 4.14 9.97H5.52C5.72 9.97 5.89 10.04 6.03 10.18C6.17 10.32 6.24 10.49 6.24 10.69ZM14.52 10.69C14.52 10.89 14.46 11.05 14.34 11.17C14.22 11.29 14.06 11.35 13.86 11.35H12.48C12.28 11.35 12.11 11.29 11.97 11.17C11.83 11.05 11.76 10.89 11.76 10.69C11.76 10.49 11.83 10.32 11.97 10.18C12.11 10.04 12.28 9.97 12.48 9.97H13.86C14.06 9.97 14.22 10.04 14.34 10.18C14.46 10.32 14.52 10.49 14.52 10.69ZM10.38 10.69C10.38 10.89 10.31 11.05 10.17 11.17C10.03 11.29 9.86 11.35 9.66 11.35H8.28C8.12 11.35 7.97 11.29 7.83 11.17C7.69 11.05 7.62 10.89 7.62 10.69C7.62 10.49 7.69 10.32 7.83 10.18C7.97 10.04 8.12 9.97 8.28 9.97H9.66C9.86 9.97 10.03 10.04 10.17 10.18C10.31 10.32 10.38 10.49 10.38 10.69ZM6.24 14.83C6.24 15.03 6.17 15.2 6.03 15.34C5.89 15.48 5.72 15.55 5.52 15.55H4.14C3.94 15.55 3.78 15.48 3.66 15.34C3.54 15.2 3.48 15.03 3.48 14.83C3.48 14.63 3.54 14.46 3.66 14.32C3.78 14.18 3.94 14.11 4.14 14.11H5.52C5.72 14.11 5.89 14.18 6.03 14.32C6.17 14.46 6.24 14.63 6.24 14.83ZM14.52 14.83C14.52 15.03 14.46 15.2 14.34 15.34C14.22 15.48 14.06 15.55 13.86 15.55H12.48C12.28 15.55 12.11 15.48 11.97 15.34C11.83 15.2 11.76 15.03 11.76 14.83C11.76 14.63 11.83 14.46 11.97 14.32C12.11 14.18 12.28 14.11 12.48 14.11H13.86C14.06 14.11 14.22 14.18 14.34 14.32C14.46 14.46 14.52 14.63 14.52 14.83ZM10.38 14.83C10.38 15.03 10.31 15.2 10.17 15.34C10.03 15.48 9.86 15.55 9.66 15.55H8.28C8.12 15.55 7.97 15.48 7.83 15.34C7.69 15.2 7.62 15.03 7.62 14.83C7.62 14.63 7.69 14.46 7.83 14.32C7.97 14.18 8.12 14.11 8.28 14.11H9.66C9.86 14.11 10.03 14.18 10.17 14.32C10.31 14.46 10.38 14.63 10.38 14.83Z" fill="#405FF2"/>
</g>
<defs>
<clipPath id="clip0_2034_857">
<rect width="18" height="18" fill="white" transform="matrix(1 0 0 -1 0 18.97)"/>
</clipPath>
</defs>
</svg>
