<svg version="1.2" xmlns="http://www.w3.org/2000/svg" viewBox="0 0 231 35" width="231" height="35">
	<title>file</title>
	<style>
		tspan { white-space:pre } 
		.s0 { fill: #3b3c98 } 
		.t1 { font-size: 21px;fill: #070830;font-weight: 700;font-family: "DejaVuSans-Bold", "DejaVu Sans" } 
	</style>
	<g id="SvgjsG2382">
		<g id="g11">
			<g id="g9">
				<path id="path3" class="s0" d="m19 23c-1.5 0-2.8 0.8-3.4 2-0.4 0.6-0.6 1.3-0.6 2 0 2.2 1.8 4 4 4 2.2 0 4-1.8 4-4 0-0.7-0.2-1.4-0.6-2-0.7-1.2-1.9-2-3.4-2z"/>
				<path id="path5" class="s0" d="m47 23c-1.5 0-2.8 0.8-3.4 2-0.4 0.6-0.6 1.3-0.6 2 0 2.2 1.8 4 4 4 2.2 0 4-1.8 4-4 0-0.7-0.2-1.4-0.6-2-0.7-1.2-1.9-2-3.4-2z"/>
				<path id="path7" class="s0" d="m59 19v-2l-12-3.4-14-8.6h-22v2h12v2h-22v2h24v2h-20v2h10v2h-4v2h-8v2h10v2h-2v2h-6v2h8c0-0.7 0.1-1.4 0.4-2 0.8-2.3 3-4 5.6-4 2.6 0 4.8 1.7 5.6 4 0.3 0.6 0.4 1.3 0.4 2h16c0-0.7 0.1-1.4 0.4-2 0.8-2.3 3-4 5.6-4 2.6 0 4.8 1.7 5.6 4 0.3 0.6 0.4 1.3 0.4 2h6v-2h2v-6z"/>
			</g>
		</g>
	</g>
	<g id="SvgjsG2383">
		<text id="JACOBS CAR'S" style="transform: matrix(1,0,0,1,0,-1)" >
			<tspan x="65.8" y="25.8" class="t1">J</tspan><tspan  y="25.8" class="t1">A</tspan><tspan  y="25.8" class="t1">C</tspan><tspan  y="25.8" class="t1">O</tspan><tspan  y="25.8" class="t1">B</tspan><tspan  y="25.8" class="t1">S</tspan><tspan  y="25.8" class="t1"> </tspan><tspan  y="25.8" class="t1">C</tspan><tspan  y="25.8" class="t1">A</tspan><tspan  y="25.8" class="t1">R</tspan><tspan  y="25.8" class="t1">'</tspan><tspan  y="25.8" class="t1">S
</tspan>
		</text>
	</g>
</svg>